<svg width="142" height="142" viewBox="0 0 142 142" fill="none" xmlns="http://www.w3.org/2000/svg">
<g clip-path="url(#clip0_1214_40355)">
<path d="M4.60391 18.5821C4.68712 18.9703 9.40196 29.5926 15.0875 42.2117L25.4047 65.1481L24.9055 68.9754C24.0457 75.4098 21.4387 95.4063 19.6637 108.857C18.6652 116.401 18.0551 122.004 18.166 122.586C18.5266 124.666 19.2199 126.219 20.3848 127.523C21.7438 129.048 23.7961 130.241 25.4324 130.518L26.5418 130.684L26.9024 133.014C27.3461 136.065 28.3723 138.2 30.2027 139.837C32.8098 142.194 28.2336 142 82.2602 142C129.714 142 130.352 142 131.822 141.445C134.734 140.336 137.147 137.119 137.452 133.902C137.563 132.931 136.536 124.084 134.539 108.164C132.848 94.8239 130.906 79.4313 130.241 73.9953C129.547 68.5594 128.854 63.8723 128.688 63.5949C128.549 63.3176 125.47 52.7231 121.865 40.0762C118.287 27.4016 114.654 14.616 113.794 11.6485C112.962 8.68088 112.019 5.85197 111.742 5.35275C111.437 4.85353 110.632 4.18791 109.884 3.82736C108.691 3.24495 108.22 3.18947 104.143 3.18947H99.7051L98.7621 2.27425C96.3215 -0.0831757 94.186 -0.360519 85.2832 0.526978C82.066 0.832047 64.3438 2.52385 45.9004 4.29884C27.4293 6.04611 11.9535 7.5715 11.5098 7.65471C9.09688 8.15393 6.57306 10.2063 5.38048 12.6192C4.68712 14.0613 4.32657 16.9735 4.60391 18.5821ZM7.71016 13.2293C8.54219 11.6762 10.0676 10.4559 11.7317 10.0121C12.9242 9.70705 91.0242 2.21877 93.0766 2.21877C94.5188 2.21877 96.8762 3.41135 97.7914 4.60393C98.4016 5.38049 124.305 61.8754 124.722 63.2899C124.86 63.7614 122.42 63.7891 76.1031 63.7891H27.3184L17.3617 41.6571C11.8703 29.5094 7.23868 18.9981 7.04454 18.3047C6.57306 16.6961 6.82266 14.8934 7.71016 13.2293ZM24.0457 93.243L27.5957 66.2852H76.8242H126.08L125.997 68.1434C125.942 69.1973 125.72 75.7703 125.498 82.7871C124.084 126.164 124.25 122.974 123.279 124.777C122.392 126.386 120.866 127.606 119.119 128.105C118.315 128.327 104.753 128.41 72.0816 128.41C21.0227 128.41 24.6559 128.549 22.6035 126.524C21.2168 125.138 20.5512 123.612 20.5234 121.754C20.5234 120.922 22.1043 108.081 24.0457 93.243ZM74.3836 130.296L119.951 130.213L121.116 129.575C123.473 128.327 125.248 126.247 125.942 123.917C126.08 123.418 126.58 112.407 127.023 99.4555C127.495 86.5035 127.911 75.8535 127.966 75.7981C128.133 75.6317 128.161 75.7426 131.877 105.446C135.732 136.093 135.649 134.734 133.874 137.091C133.347 137.784 132.376 138.561 131.489 139.005L129.963 139.781H82.2602C36.6371 139.781 34.4738 139.754 33.4199 139.254C32.1164 138.672 30.6742 137.313 30.0641 136.12C29.6481 135.288 28.927 132.21 28.8715 130.989L28.8438 130.352L74.3836 130.296ZM103.283 5.4637C107.304 5.13087 109.468 5.68556 110.05 7.12776C110.632 8.54221 122.863 51.9465 122.752 52.0852C122.669 52.1407 122.253 51.4196 121.809 50.4489C121.366 49.4781 117.622 41.4907 113.517 32.7266C103.144 10.7055 100.953 5.99065 100.953 5.79651C100.953 5.7133 102.007 5.54689 103.283 5.4637Z" fill="#154040"/>
<path d="M7.21083 18.3602C7.32177 18.7484 11.9534 29.1488 17.4725 41.4352L27.5401 63.7891L76.1585 63.7891H124.777L123.03 59.9617C122.087 57.8816 116.207 44.9297 109.967 31.2012C103.726 17.4727 98.2905 5.74102 97.8745 5.13086C96.7929 3.52227 94.796 2.49609 92.7437 2.49609C91.8562 2.49609 73.3296 4.18789 51.5858 6.26797C13.9226 9.8457 12.0089 10.0398 10.5944 10.7055C7.87646 12.009 6.35107 15.4758 7.21083 18.3602ZM25.5987 35.6664C27.2351 35.3891 28.5663 35.6109 29.3429 36.332C30.1749 37.1086 30.369 38.0793 29.8976 39.05C29.537 39.7711 29.537 39.9098 30.0085 40.4645C30.2858 40.825 30.5077 41.4629 30.5077 41.9066C30.5077 43.959 29.1487 44.9297 26.2366 44.9297H24.4339L24.3229 41.241C24.1843 35.4168 24.0733 35.9438 25.5987 35.6664ZM34.4183 39.7988C35.0561 37.6633 35.694 35.7496 35.8604 35.5555C36.0268 35.3613 36.5261 35.2227 36.9976 35.2781C37.8018 35.3613 37.8851 35.5 39.4104 39.5215C40.2979 41.7957 41.019 43.848 41.019 44.0145C41.0468 44.2363 40.6585 44.375 39.9651 44.375C38.9667 44.375 38.8835 44.3195 38.4397 43.127C38.0237 42.073 37.8296 41.8789 37.2194 41.8789C36.1655 41.8789 35.8882 42.1285 35.4999 43.4598C35.1394 44.5969 35.0839 44.6523 34.0577 44.6523C33.1425 44.6523 33.0038 44.5691 33.1147 44.1531C33.1979 43.9035 33.7804 41.9344 34.4183 39.7988ZM44.569 35.2781C45.5397 35.3613 45.7339 35.5277 47.2038 37.691L48.7847 39.993L48.6183 37.4414L48.4519 34.9176L49.5335 35.0008L50.6151 35.084L50.6983 39.577C50.7261 42.073 50.6706 44.0977 50.5597 44.0977C50.421 44.0977 50.0604 44.1809 49.7276 44.2641C49.2284 44.4027 48.8956 44.0699 47.5089 41.9898L45.9003 39.577L45.8171 41.9621L45.7339 44.375H44.7909C43.8479 44.375 43.8479 44.375 43.737 42.9051C43.6815 42.1285 43.6261 40.0484 43.5983 38.3289L43.5429 35.1949L44.569 35.2781ZM56.578 34.9453H57.6874V36.3875V37.8574L58.8245 36.2488C59.9062 34.7234 59.9893 34.668 61.1819 34.668C61.8476 34.668 62.4022 34.7512 62.4022 34.8344C62.4022 34.9176 61.7089 35.8883 60.8769 36.9699C59.9339 38.1625 59.4347 39.0223 59.6011 39.2164C61.2651 41.352 62.9015 43.7926 62.7628 43.9312C62.6519 44.0145 62.1249 44.0977 61.5702 44.0977C60.6272 44.0977 60.4331 43.959 59.3792 42.4336C57.7706 40.1316 57.6319 40.1316 57.8538 42.2672L58.0479 44.0977H56.9108H55.7737L55.6628 41.241C55.6351 39.6879 55.5518 37.6355 55.5241 36.6648L55.4687 34.9453H56.578ZM68.8089 34.5848C69.5854 34.4738 70.5561 34.4738 70.9999 34.5848C72.7194 34.9176 73.6624 36.6648 72.8581 38.0238C72.4698 38.7449 72.4698 38.8281 72.969 39.2719C73.5515 39.7988 73.6901 41.5461 73.2187 42.4613C72.7472 43.3488 71.4436 43.8203 69.5022 43.8203C67.339 43.8203 67.4776 44.1531 67.4222 38.6617L67.3944 34.7512L68.8089 34.5848ZM76.8519 36.3043C77.2401 35.5 77.7394 35.0285 78.5714 34.6402C80.069 33.9746 80.8179 33.9746 82.2601 34.6957C84.3956 35.7219 85.1999 38.6895 84.0351 41.241C83.3417 42.7941 82.0937 43.543 80.2354 43.543C77.7948 43.543 76.2972 41.7957 76.2694 38.8836C76.2694 37.9406 76.4636 37.0254 76.8519 36.3043ZM87.8624 35.9715C88.6667 34.557 89.7206 33.9746 91.3847 33.9746C93.9362 33.9746 95.4894 35.6941 95.5171 38.523C95.5448 41.4352 93.9085 43.2656 91.246 43.2656C89.3323 43.2656 87.8347 42.0453 87.3354 40.1039C87.0304 38.9113 87.28 36.9422 87.8624 35.9715ZM99.5663 33.8359H100.676V35.2781V36.748L101.813 35.1395C102.894 33.6141 102.978 33.5586 104.17 33.5586C104.836 33.5586 105.391 33.6418 105.391 33.725C105.391 33.8082 104.697 34.7512 103.865 35.8328L102.34 37.7742L103.366 39.2164C103.921 39.993 104.725 41.0746 105.169 41.6293C105.585 42.184 105.862 42.7109 105.751 42.8219C105.668 42.9051 105.113 42.9883 104.531 42.9883C103.56 42.9883 103.394 42.8773 102.34 41.3242C101.73 40.409 101.064 39.6602 100.898 39.6602C100.703 39.6602 100.676 40.1871 100.787 41.3242L100.981 42.9883H99.8714H98.762L98.6511 40.5477C98.6233 39.2164 98.5401 37.1641 98.5124 35.9715L98.4569 33.8359H99.5663Z" fill="#1D9B57"/>
<path d="M26.7081 39.1055C26.9023 39.1055 27.3183 38.9391 27.5956 38.7172C28.289 38.218 27.9562 37.4414 27.0409 37.4414C26.4585 37.4414 26.3476 37.5801 26.3476 38.2734C26.3476 38.7727 26.4863 39.1055 26.7081 39.1055Z" fill="#1D9B57"/>
<path d="M27.0965 42.9883C27.9008 42.9883 28.3446 42.5445 28.2336 41.8512C28.1782 41.352 27.9563 41.1578 27.3739 41.1023C26.6805 41.0191 26.6251 41.0746 26.6251 41.9898C26.6251 42.7664 26.736 42.9883 27.0965 42.9883Z" fill="#1D9B57"/>
<path d="M36.9422 40.2148C37.386 40.2148 37.4137 40.1316 37.1364 39.577C36.6926 38.7172 36.6926 38.7172 36.5539 39.5215C36.443 40.0762 36.5262 40.2148 36.9422 40.2148Z" fill="#1D9B57"/>
<path d="M69.7242 37.9961C70.473 37.9961 71 37.6633 71 37.1641C71 36.6648 70.473 36.332 69.7242 36.332C69.4746 36.332 69.3359 36.6371 69.3359 37.1641C69.3359 37.691 69.4746 37.9961 69.7242 37.9961Z" fill="#1D9B57"/>
<path d="M70.3065 41.8789C71.2217 41.8789 71.7209 40.9637 71.1108 40.3813C70.8889 40.1316 70.4452 39.9375 70.1401 39.9375C69.7241 39.9375 69.6131 40.1316 69.6131 40.9082C69.6131 41.768 69.6963 41.8789 70.3065 41.8789Z" fill="#1D9B57"/>
<path d="M78.4883 40.0763C79.3203 42.711 82.3711 41.8235 82.3711 38.9391C82.3711 37.5524 81.3172 36.0548 80.3188 36.0548C78.932 36.0548 77.9336 38.2735 78.4883 40.0763Z" fill="#1D9B57"/>
<path d="M89.8592 40.4368C90.3584 41.2411 90.5526 41.352 91.4678 41.2688C92.3553 41.1856 92.5772 41.0469 93.0209 40.1317C94.2413 37.6079 92.078 34.6958 90.1366 36.2766C89.2213 37.0255 89.0827 39.2165 89.8592 40.4368Z" fill="#1D9B57"/>
<path d="M20.773 123.002C21.0781 124.278 21.7714 125.415 22.7976 126.386C24.739 128.272 20.9117 128.133 72.3312 128.133H118.869L120.312 127.412C121.837 126.635 122.863 125.554 123.529 123.917C123.973 122.891 124.084 120.173 125.221 85.9766C125.443 79.1817 125.692 71.9707 125.775 69.9461L125.969 66.2852H76.8519C49.8386 66.2852 27.7343 66.3684 27.7343 66.4793C27.7343 66.729 25.5156 83.8133 24.6835 89.8594C24.3785 92.0782 23.9347 95.3786 23.7128 97.209C23.4632 99.0395 22.6589 105.28 21.9101 111.048C21.1335 116.845 20.5234 121.726 20.5511 121.865C20.5789 122.031 20.6621 122.531 20.773 123.002ZM35.1949 110.106C36.0824 109.662 84.8949 109.717 85.5328 110.189C85.8656 110.438 86.0042 110.827 85.921 111.354L85.8378 112.186L60.5996 112.269C46.7046 112.297 35.1949 112.269 35.0007 112.186C34.446 111.991 34.5847 110.438 35.1949 110.106ZM35.1949 96.2383C35.5554 96.0442 46.0945 95.961 67.339 95.961C98.5957 95.961 98.9285 95.961 99.4277 96.5157C99.8437 96.9872 99.8714 97.1813 99.6218 97.7637L99.289 98.4571H67.1726C49.5058 98.4571 34.9453 98.3739 34.8621 98.2629C34.446 97.8747 34.6679 96.5157 35.1949 96.2383ZM35.1949 82.3711C35.5554 82.177 46.0945 82.0938 67.339 82.0938C98.5957 82.0938 98.9285 82.0938 99.4277 82.6485C99.8437 83.12 99.8714 83.3141 99.6218 83.8965L99.289 84.5899H67.1726C49.5058 84.5899 34.9453 84.5067 34.8621 84.3957C34.446 84.0075 34.6679 82.6485 35.1949 82.3711ZM104.836 103.449H112.324V111.215V118.981H104.836H97.3476V111.215V103.449H104.836Z" fill="#1D9B57"/>
<path d="M24.6005 41.6569C24.656 41.3241 24.656 40.8249 24.6005 40.5475C24.5173 40.2979 24.4618 40.5753 24.4896 41.1854C24.4896 41.7956 24.545 42.0175 24.6005 41.6569Z" fill="#C1ECEC"/>
<path d="M26.209 44.8464C26.9578 44.8464 27.2629 44.791 26.8192 44.7355C26.4032 44.68 25.793 44.68 25.4325 44.7355C25.0996 44.791 25.4325 44.8464 26.209 44.8464Z" fill="#C1ECEC"/>
<path d="M26.2368 38.0792C26.32 37.7464 26.6251 37.4136 26.9301 37.3581C27.3462 37.2472 27.3184 37.2472 26.8469 37.2749C26.3755 37.3027 26.2091 37.4968 26.1536 37.996C26.1258 38.5785 26.1536 38.5785 26.2368 38.0792Z" fill="#C1ECEC"/>
<path d="M29.565 133.541C30.0087 135.787 30.9517 137.313 32.6989 138.533L33.8915 139.365L81.6224 139.448C115.847 139.504 129.686 139.448 130.435 139.227C132.404 138.644 134.429 136.314 134.9 134.068C135.011 133.513 133.818 122.946 131.766 106.583C129.908 91.9394 128.41 79.7363 128.41 79.4867C128.41 79.237 128.299 79.0429 128.188 79.0429C128.077 79.0429 127.689 87.807 127.329 98.5124C126.552 122.669 126.497 123.695 125.526 125.581C124.611 127.356 123.03 128.965 121.255 129.825L119.951 130.49L74.5224 130.573C31.5896 130.629 29.1212 130.657 29.1489 131.128C29.1489 131.378 29.3431 132.459 29.565 133.541Z" fill="#C1ECEC"/>
<path d="M34.0857 44.6523C34.5572 44.6523 34.9732 44.5414 35.0564 44.4305C35.1119 44.3195 34.7513 44.2641 34.2244 44.3195C33.0595 44.4582 32.9763 44.6523 34.0857 44.6523Z" fill="#C1ECEC"/>
<path d="M43.7372 37.0808C43.7927 36.8312 43.7927 36.3875 43.7372 36.1101C43.654 35.8605 43.5985 36.0824 43.5985 36.6093C43.5985 37.1363 43.654 37.3582 43.7372 37.0808Z" fill="#C1ECEC"/>
<path d="M44.7079 44.2918C45.4844 44.2363 45.6231 44.1254 45.6509 43.4598C45.6786 42.7941 45.6786 42.7941 45.5676 43.3765C45.4844 43.8758 45.2348 44.0976 44.6247 44.2086C43.8481 44.375 43.8759 44.375 44.7079 44.2918Z" fill="#C1ECEC"/>
<path d="M50.6708 40.5475C50.7263 40.2147 50.7263 39.7155 50.6708 39.4382C50.5876 39.1886 50.5321 39.4659 50.5599 40.0761C50.5599 40.6862 50.6153 40.9081 50.6708 40.5475Z" fill="#C1ECEC"/>
<path d="M55.9403 42.7663C55.9958 42.4335 55.9958 41.9343 55.9403 41.6569C55.8571 41.4073 55.8017 41.6846 55.8294 42.2948C55.8294 42.905 55.8849 43.1268 55.9403 42.7663Z" fill="#C1ECEC"/>
<path d="M67.5888 38.3288C67.6442 37.996 67.6442 37.4968 67.5888 37.2194C67.5056 36.9698 67.4501 37.2471 67.4778 37.8573C67.4778 38.4675 67.5333 38.6893 67.5888 38.3288Z" fill="#C1ECEC"/>
<path d="M98.6236 34.6125C98.7068 34.3629 99.0674 34.0855 99.4556 34.0301C100.038 33.9191 100.038 33.9191 99.3724 33.9469C98.8177 33.9746 98.5959 34.141 98.5404 34.5293C98.5127 34.9176 98.5404 34.9453 98.6236 34.6125Z" fill="#C1ECEC"/>
<path d="M111.576 28.0671C117.233 40.0761 121.893 49.8663 121.92 49.8386C121.948 49.8108 119.258 40.1593 115.93 28.4276C109.135 4.57607 109.717 6.04599 106.916 5.68544C105.308 5.4913 101.203 5.76864 101.258 6.07372C101.258 6.15693 105.918 16.0581 111.576 28.0671Z" fill="#C1ECEC"/>
<path d="M112.241 115.014C112.297 112.934 112.297 109.495 112.241 107.387C112.213 105.307 112.158 107.027 112.158 111.215C112.158 115.403 112.213 117.122 112.241 115.014Z" fill="#C1ECEC"/>
<path d="M24.6004 42.3504L24.7113 44.6523H26.4863C27.457 44.6523 28.5664 44.5137 28.9269 44.3473C30.3137 43.7094 30.7574 41.4906 29.7035 40.3812C29.232 39.8543 29.2043 39.7434 29.5648 39.2719C29.9808 38.6895 30.0641 37.7742 29.7867 37.0254C29.3984 36.027 26.9023 35.4445 25.0164 35.9437C24.3508 36.1379 24.3508 36.0547 24.6004 42.3504ZM26.7637 37.2195C27.0687 37.1918 27.568 37.3305 27.873 37.5523C28.3168 37.8852 28.3723 38.0516 28.1226 38.4676C27.7344 39.0777 26.625 39.2719 26.3199 38.7727C25.9039 38.1625 26.1535 37.3027 26.7637 37.2195ZM26.9301 40.7695C28.5387 40.7695 29.2598 42.4613 27.8453 42.9883C26.5418 43.4875 26.3476 43.3766 26.3476 42.0176C26.3476 40.9359 26.4308 40.7695 26.9301 40.7695Z" fill="#ECECEC"/>
<path d="M34.1411 44.3196C34.9731 44.2364 35.1118 44.0977 35.3891 43.127C35.6664 42.0731 35.7219 42.0176 36.9422 41.9344L38.218 41.8512L38.6063 43.0438C38.9668 44.07 39.1332 44.2364 39.8821 44.3196C40.9914 44.4305 40.9914 44.2641 39.993 41.6016C39.5493 40.4645 38.8559 38.6063 38.4399 37.4969C37.6911 35.5832 37.6356 35.5 36.7758 35.5H35.8883L34.668 39.577C34.0024 41.8512 33.3922 43.8481 33.3368 44.0422C33.2536 44.3196 33.4477 44.4028 34.1411 44.3196ZM36.5817 38.8559C36.7758 38.5508 36.8868 38.5785 37.1364 39.05C37.5801 39.8821 37.5246 40.2149 36.8868 40.2149C36.3043 40.2149 36.1379 39.5492 36.5817 38.8559Z" fill="#ECECEC"/>
<path d="M35.1116 111.88C35.4999 112.269 38.1624 112.324 60.3222 112.324C82.4819 112.324 85.1444 112.269 85.5327 111.88C86.0597 111.381 86.0597 111.326 85.6991 110.632C85.4218 110.105 84.8393 110.105 60.3776 110.105C41.2686 110.105 35.2503 110.189 35.0007 110.438C34.5569 110.882 34.5847 111.354 35.1116 111.88Z" fill="#ECECEC"/>
<path d="M35.1116 98.0133C35.4999 98.4016 38.7725 98.457 67.0061 98.457C88.1952 98.457 98.6788 98.3738 99.0393 98.1797C99.6218 97.8469 99.7327 97.0703 99.2335 96.5711C98.762 96.0996 35.4722 96.0996 35.0007 96.5711C34.5569 97.0148 34.5847 97.4863 35.1116 98.0133Z" fill="#ECECEC"/>
<path d="M35.1116 84.1461C35.4999 84.5344 38.7725 84.5898 67.0061 84.5898C88.1952 84.5898 98.6788 84.5066 99.0393 84.3125C99.6218 83.9797 99.7327 83.2031 99.2335 82.7039C98.762 82.2324 35.4722 82.2324 35.0007 82.7039C34.5569 83.1477 34.5847 83.6191 35.1116 84.1461Z" fill="#ECECEC"/>
<path d="M43.7649 39.8543L43.8481 44.0977H44.6524H45.4844V41.4074V38.6895L47.2872 41.4074C48.9235 43.848 49.1731 44.0977 49.9774 44.0977H50.8372L50.6708 41.7957C50.5598 40.5477 50.4766 38.5508 50.4766 37.3582V35.2227H49.6446H48.8403L48.7571 37.7742L48.6739 40.3258L47.0098 37.7742C45.5954 35.6109 45.2348 35.2227 44.5969 35.2227C44.1809 35.2227 43.8204 35.3059 43.7649 35.4168C43.7094 35.5555 43.7094 37.5523 43.7649 39.8543Z" fill="#ECECEC"/>
<path d="M55.9402 42.6C56.0511 43.9867 56.0511 43.9867 56.8554 43.8758C57.6875 43.7648 57.6875 43.7371 57.6875 41.9898C57.6875 41.0191 57.7707 40.2148 57.8816 40.2148C58.0203 40.2148 58.6582 41.0469 59.3238 42.0176C60.4886 43.7371 60.5996 43.8203 61.6535 43.8203H62.7351L62.0695 42.9051C60.1003 40.2426 59.3515 39.1332 59.3515 38.8281C59.3515 38.634 59.823 37.9129 60.4054 37.1918C62.3746 34.7512 62.3191 34.9453 61.0988 34.9453C60.1003 34.9453 59.9062 35.0563 58.9078 36.4707C58.3253 37.3027 57.7429 37.9961 57.6042 37.9961C57.4933 37.9961 57.4101 37.3305 57.4101 36.5262V35.0285L56.5781 35.1672L55.746 35.2781L55.8015 38.2457C55.8292 39.8543 55.8847 41.8234 55.9402 42.6Z" fill="#ECECEC"/>
<path d="M67.5888 40.0762C67.672 42.295 67.8106 43.4598 68.0325 43.5985C68.504 43.9036 69.336 43.8758 71.0001 43.5153C72.1372 43.2657 72.5255 43.0438 72.9692 42.3504C73.6626 41.2133 73.6348 40.4645 72.886 39.5215C72.4145 38.9114 72.3591 38.6618 72.6087 38.2458C72.9692 37.6911 73.0524 36.6372 72.7751 35.9161C72.3868 34.9176 70.3622 34.4184 68.2544 34.8344C67.5055 35.0008 67.3946 35.1118 67.4501 35.8883C67.4778 36.3598 67.561 38.2458 67.5888 40.0762ZM69.7243 39.6602C69.9462 39.6602 70.4454 39.7711 70.8337 39.9375C72.2481 40.4645 71.527 42.1563 69.9184 42.1563C69.4192 42.1563 69.336 41.9899 69.336 40.9083C69.336 40.0208 69.447 39.6602 69.7243 39.6602ZM70.2235 36.3875C71.4438 36.4985 71.6934 37.5801 70.5841 37.9961C69.4747 38.4122 69.336 38.3567 69.336 37.275C69.336 36.3321 69.3638 36.3043 70.2235 36.3875Z" fill="#ECECEC"/>
<path d="M76.5468 40.1871C77.2401 43.127 80.3464 44.3473 82.7315 42.6555C85.0889 40.9637 84.7561 36.027 82.2046 34.8066C78.8764 33.2258 75.6038 36.332 76.5468 40.1871ZM78.8487 36.7203C80.0136 35.3613 81.7331 35.9437 82.3987 37.9129C83.4249 41.0746 80.069 43.432 78.5436 40.6309C77.9612 39.6047 78.1554 37.5523 78.8487 36.7203Z" fill="#ECECEC"/>
<path d="M87.8903 40.9915C89.2771 43.9313 93.7423 43.7926 94.9626 40.7696C95.7669 38.7172 95.4064 36.4153 94.0196 35.084C92.3833 33.5309 89.3325 33.9469 88.0567 35.8883C87.3079 37.0254 87.2247 39.577 87.8903 40.9915ZM89.4435 37.0254C89.8595 35.9993 90.9411 35.3614 91.8286 35.6387C93.4927 36.1934 94.1306 39.577 92.7716 40.9083C91.6345 42.0731 90.1091 41.6848 89.4435 40.1317C88.9442 38.9946 88.9442 38.1903 89.4435 37.0254Z" fill="#ECECEC"/>
<path d="M97.5418 118.786C97.625 118.897 100.953 118.98 104.891 118.98H112.047V111.354V103.727H104.697H97.3477V111.159C97.3477 115.264 97.4309 118.703 97.5418 118.786Z" fill="#ECECEC"/>
<path d="M98.9284 41.7957C99.0394 42.9882 99.289 43.1824 100.232 42.8218C100.565 42.6832 100.676 42.2394 100.676 40.8804C100.676 39.9097 100.759 39.1054 100.87 39.1054C101.009 39.1054 101.646 39.9375 102.312 40.9082C103.449 42.6277 103.56 42.7109 104.614 42.7109C105.474 42.7109 105.668 42.6277 105.474 42.3503C105.307 42.1839 104.503 41.0746 103.643 39.9097L102.09 37.7742L103.616 35.805L105.141 33.8359H104.059C103.089 33.8359 102.894 33.9468 101.896 35.3613C101.314 36.1933 100.731 36.8867 100.593 36.8867C100.482 36.8867 100.398 36.2211 100.398 35.4168V33.9191L99.5663 34.0578L98.7343 34.1687L98.7898 37.4136C98.8175 39.1886 98.873 41.1578 98.9284 41.7957Z" fill="#ECECEC"/>
</g>
<defs>
<clipPath id="clip0_1214_40355">
<rect width="142" height="142" fill="white" transform="matrix(0 -1 1 0 0 142)"/>
</clipPath>
</defs>
</svg>
