<svg width="35" height="62" viewBox="0 0 35 62" fill="none" xmlns="http://www.w3.org/2000/svg">
<circle cx="17.5" cy="17.5" r="17.5" fill="white"/>
<ellipse cx="17.6111" cy="17.6111" rx="13.6111" ry="13.6111" fill="#1D9B57"/>
<path d="M20.425 54.897L14.4682 54.897C14.014 54.897 13.738 55.4464 13.9852 55.8695L16.9636 61.0103C17.0155 61.1003 17.0872 61.1744 17.1722 61.2258C17.2571 61.2771 17.3525 61.3041 17.4495 61.3041C17.5465 61.3041 17.6418 61.2771 17.7268 61.2258C17.8117 61.1744 17.8835 61.1003 17.9353 61.0103L20.908 55.8695C20.9641 55.7743 20.9957 55.6642 20.9996 55.5508C21.0035 55.4374 20.9794 55.325 20.9299 55.2254C20.8805 55.1258 20.8075 55.0428 20.7186 54.985C20.6297 54.9271 20.5283 54.8967 20.425 54.897Z" fill="white"/>
<path d="M23.8255 18.2725V16.76C23.8255 16.5554 23.7564 16.3596 23.6354 16.2084L20.6284 12.3381C20.4642 12.1246 20.2136 12 19.9544 12H10.8641C10.3888 12 10 12.4004 10 12.8897V20.0075C10 20.4968 10.3888 20.8972 10.8641 20.8972H11.7714C11.9701 21.9115 12.8429 22.6766 13.8884 22.6766C14.934 22.6766 15.8067 21.9115 16.0055 20.8972H21.2765C21.5184 22.125 22.7368 22.9791 24.0588 22.5788C24.7242 22.3741 25.2599 21.8225 25.4587 21.1374C25.8475 19.7761 25.018 18.5216 23.8255 18.2725ZM13.8884 21.7869C13.1712 21.7869 12.5923 21.1908 12.5923 20.4523C12.5923 19.7139 13.1712 19.1177 13.8884 19.1177C14.6056 19.1177 15.1846 19.7139 15.1846 20.4523C15.1846 21.1908 14.6056 21.7869 13.8884 21.7869ZM15.1846 16.4486H10.8641V12.8897H15.1846V16.4486ZM19.5051 20.0075H16.0487V17.3383H17.7769V16.4486H16.0487V12.8897H19.5051V20.0075ZM20.3692 16.4486V13.4235L22.7195 16.4486H20.3692ZM23.3935 21.7869C22.6763 21.7869 22.0973 21.1908 22.0973 20.4523C22.0973 19.7139 22.6763 19.1177 23.3935 19.1177C24.1107 19.1177 24.6896 19.7139 24.6896 20.4523C24.6896 21.1908 24.1107 21.7869 23.3935 21.7869Z" fill="white"/>
</svg>
