<svg width="26" height="26" viewBox="0 0 26 26" fill="none" xmlns="http://www.w3.org/2000/svg">
<path d="M16.4772 4.49206C11.8909 2.61794 6.67083 4.71865 4.63705 9.1899L21.6373 16.1391C23.3176 11.5249 21.0635 6.36757 16.4772 4.49345L16.4772 4.49206Z" fill="#036319"/>
<path d="M9.52267 21.507C14.2212 23.4279 19.587 21.1759 21.5071 16.4766C21.5531 16.3637 21.5957 16.2514 21.6368 16.1378L4.63658 9.18862C4.58707 9.29808 4.53757 9.40894 4.49225 9.52119C2.57142 14.2197 4.82343 19.5855 9.52267 21.5056V21.507Z" fill="#036319"/>
<path d="M14.1787 21.6058C14.139 21.6107 14.0992 21.6169 14.0595 21.6218C13.8643 21.6455 13.6697 21.663 13.4731 21.6727C12.4684 21.7278 11.4533 21.6093 10.48 21.3151C10.1523 21.2174 9.82948 21.0982 9.51364 20.9595C9.36374 20.8946 9.21523 20.8256 9.06742 20.7503C9.04302 20.7371 9.01932 20.7259 8.99561 20.712C8.54172 20.477 8.10108 20.1981 7.68415 19.876C7.53424 19.7596 7.38783 19.6382 7.2442 19.51C7.17169 19.4458 7.09988 19.3796 7.02737 19.3126C5.96272 18.3052 5.20973 17.0906 4.77048 15.7896C3.77416 12.8383 4.39886 9.44425 6.68573 7.0277C9.97799 3.5472 15.4895 3.39311 18.9714 6.68676C22.4533 9.98041 22.606 15.4919 19.3123 18.9724C18.749 19.5678 18.1208 20.0663 17.4494 20.4658C17.3552 20.5223 17.2604 20.5767 17.1642 20.6283C17.1119 20.6569 17.061 20.6841 17.0087 20.7099C16.833 20.8005 16.6559 20.8856 16.4767 20.9644C16.3826 21.0055 16.2871 21.0452 16.1902 21.0836C16.1393 21.1024 16.0877 21.1233 16.0347 21.1414C15.965 21.1679 15.896 21.1923 15.8276 21.216C15.7872 21.23 15.7481 21.2425 15.7084 21.2558C15.2078 21.4189 14.694 21.5354 14.1766 21.6065L14.1787 21.6058Z" fill="#3FAA70"/>
<path d="M10.7799 20.3218C10.4913 20.2353 10.2061 20.1301 9.92864 20.0087C9.79826 19.9523 9.66858 19.8909 9.5389 19.8254L9.55006 19.831L9.51171 19.8107L9.49637 19.8024L9.47127 19.7898C9.30952 19.7062 9.15125 19.6148 8.99437 19.5193L8.99577 20.7115C9.01947 20.7255 9.04388 20.7373 9.06758 20.7499C9.21469 20.8245 9.3632 20.8949 9.5131 20.9597C9.83034 21.0985 10.1531 21.2163 10.4801 21.3146C11.4535 21.6089 12.4686 21.7274 13.474 21.6716L13.4726 20.6328C13.4559 20.6341 13.4384 20.6348 13.4217 20.6362C12.5202 20.6857 11.6333 20.5798 10.7799 20.3218Z" fill="#1A8B4E"/>
<path d="M14.1788 21.6053L14.1767 20.556C14.5915 20.4911 14.9994 20.397 15.3892 20.2694C15.4198 20.2583 15.4993 20.2318 15.4993 20.2318C15.5558 20.2129 15.6123 20.1927 15.6673 20.1711L15.6806 20.1662C15.7217 20.1516 15.7622 20.1362 15.8026 20.1209L15.8145 20.116C15.8145 20.116 15.8235 20.1125 15.827 20.1105L15.8284 21.2148C15.788 21.2288 15.7489 21.2413 15.7092 21.2546C15.2086 21.4177 14.6947 21.5342 14.1774 21.6053L14.1788 21.6053Z" fill="#1A8B4E"/>
<path d="M17.4493 19.2263C17.2778 19.349 17.1014 19.4655 16.9201 19.5728C16.835 19.623 16.75 19.6718 16.6642 19.7185C16.6259 19.7402 16.591 19.7583 16.5554 19.7757L16.5282 19.789C16.5108 19.798 16.4927 19.8064 16.4753 19.8155L16.476 20.9624C16.6558 20.8843 16.8329 20.7992 17.0079 20.7079C17.0602 20.6821 17.1125 20.6549 17.1634 20.6263C17.2589 20.574 17.3538 20.5196 17.4486 20.4639L17.4479 19.2263L17.4493 19.2263Z" fill="#1A8B4E"/>
<path d="M19.9251 12.8069C19.9913 15.1921 18.8374 17.3333 17.0317 18.6301C16.7458 18.8365 16.4425 19.0198 16.1274 19.1802C15.9677 19.2618 15.8053 19.3364 15.6386 19.4054C15.1436 19.6104 14.6186 19.7589 14.0713 19.8446C13.8844 19.8739 13.6941 19.8955 13.503 19.9095C13.4006 19.9171 13.2974 19.9227 13.1928 19.9255C11.6854 19.9673 10.2756 19.5225 9.11546 18.7319C7.33408 17.5236 6.13905 15.5045 6.07491 13.1925C6.01076 10.8805 7.09284 8.79863 8.80311 7.49275C9.91866 6.63935 11.3005 6.11644 12.8079 6.07461C12.9125 6.07182 13.0164 6.07112 13.1189 6.07321C13.3113 6.076 13.5023 6.08716 13.6899 6.10598C14.2407 6.16037 14.7734 6.28029 15.2789 6.45668C15.4483 6.51595 15.6149 6.58218 15.7788 6.654C16.1037 6.79623 16.4153 6.96286 16.7123 7.15251C18.5871 8.34684 19.8582 10.4211 19.9244 12.8062L19.9251 12.8069Z" fill="#036319"/>
<path d="M8.91542 7.92723L9.04789 18.1749C9.08624 18.2049 9.12389 18.2342 9.16363 18.2628C9.57499 18.564 10.0233 18.8157 10.496 19.0123C10.6522 19.0764 10.8119 19.1357 10.9708 19.1873C11.2887 19.2919 11.6136 19.3699 11.9372 19.4229C12.4329 19.5045 12.93 19.5275 13.4194 19.4954L13.2521 6.49515C11.6799 6.43588 10.1362 6.94764 8.91612 7.92653L8.91542 7.92723Z" fill="#1A8B4E"/>
<path d="M14.0427 6.57445L14.2079 19.397C14.7524 19.2945 15.2802 19.1236 15.7801 18.8887L15.6274 7.0395C15.1255 6.81918 14.5935 6.6623 14.0427 6.57445Z" fill="#1A8B4E"/>
<path d="M17.3835 17.8173L17.258 8.07159C16.9666 7.8192 16.6556 7.59609 16.33 7.40157L16.4729 18.5103C16.7937 18.3081 17.099 18.0766 17.3835 17.8173Z" fill="#1A8B4E"/>
<path d="M15.6186 6.73515C18.9443 8.1254 20.5821 11.8715 19.4108 15.2307L19.8905 15.4315C21.1719 11.8074 19.408 7.75797 15.8194 6.25686C12.2294 4.75575 8.1082 6.34471 6.4286 9.80221L6.90829 10.003C8.47703 6.80975 12.2936 5.3442 15.62 6.73515L15.6186 6.73515Z" fill="#036319"/>
<path d="M10.1792 19.7418C13.8968 21.2966 18.1867 19.5362 19.7415 15.8186C19.7952 15.6896 19.844 15.5613 19.89 15.4317L19.4103 15.2309C19.365 15.3612 19.3169 15.4902 19.2632 15.6192C17.8186 19.0732 13.8333 20.7089 10.3793 19.2643C6.9253 17.8196 5.28963 13.8343 6.73426 10.3803C6.78795 10.2513 6.84582 10.1265 6.90648 10.0031L6.42679 9.80234C6.36683 9.92644 6.30896 10.0512 6.25527 10.1802C4.70048 13.8978 6.46095 18.1878 10.1785 19.7425L10.1792 19.7418Z" fill="#036319"/>
<path d="M15.1328 17.3529C14.6761 17.3661 14.2188 17.3787 13.7614 17.3926C13.7544 17.3829 13.7489 17.3717 13.7405 17.3619C13.4735 17.0461 13.205 16.7303 12.9373 16.4151C12.1585 15.4969 11.3797 14.5787 10.6002 13.6611C10.5793 13.636 10.5688 13.6116 10.5682 13.5788C10.5626 13.3599 10.5556 13.141 10.5493 12.9228C10.5486 12.9067 10.5479 12.8907 10.5479 12.8726C10.5675 12.8712 10.5786 12.8698 10.5912 12.8698C10.7766 12.8642 10.9621 12.8642 11.1468 12.8537C11.3665 12.8419 11.5868 12.8307 11.805 12.8021C12.1069 12.7624 12.3935 12.6669 12.6542 12.5051C12.9959 12.2918 13.2336 11.9996 13.3222 11.6001C13.3424 11.5088 13.3466 11.414 13.3591 11.315C12.3042 11.345 11.2633 11.3749 10.2154 11.4049C10.2272 11.3847 10.2349 11.3701 10.2439 11.3568C10.3959 11.1128 10.5486 10.8709 10.6999 10.6261C10.7187 10.5962 10.7383 10.5836 10.7759 10.5822C11.5742 10.5606 12.3725 10.5376 13.1709 10.5146C13.1869 10.5139 13.2029 10.5132 13.2238 10.5132C13.2176 10.4971 13.2148 10.4874 13.2092 10.4776C13.1569 10.3974 13.1102 10.3117 13.0495 10.2385C12.8683 10.0168 12.6242 9.89266 12.3516 9.81945C12.0365 9.73439 11.7137 9.71836 11.3902 9.72254C10.9997 9.72812 10.61 9.74137 10.2195 9.75113C10.2042 9.75113 10.1889 9.75252 10.1666 9.75252C10.1805 9.72882 10.1896 9.71417 10.1979 9.70023C10.3506 9.4569 10.5019 9.21357 10.6539 8.96955C10.6623 8.957 10.6672 8.94236 10.6734 8.92911L15.9416 8.77851C15.9353 8.79036 15.9304 8.80361 15.9228 8.81546C15.7673 9.06437 15.6111 9.31397 15.4563 9.56358C15.4389 9.59216 15.4201 9.60262 15.3873 9.60332C14.9536 9.61447 14.5207 9.62772 14.0877 9.63957C14.0717 9.64027 14.0563 9.64027 14.0305 9.64097C14.2564 9.88499 14.3882 10.166 14.4628 10.4776C14.9725 10.463 15.4793 10.4483 15.9904 10.4337C15.9848 10.4449 15.9813 10.4511 15.9779 10.456C15.8168 10.7133 15.6564 10.9713 15.4947 11.2278C15.4863 11.2418 15.4619 11.2522 15.4445 11.2529C15.1433 11.2627 14.8428 11.2718 14.5416 11.2787C14.5095 11.2801 14.4956 11.2871 14.4914 11.322C14.4837 11.3868 14.4733 11.4516 14.4586 11.5151C14.3268 12.1042 13.9887 12.5511 13.4986 12.8879C13.0495 13.1961 12.5482 13.3641 12.0121 13.4345C11.9549 13.4415 11.8977 13.4485 11.835 13.4568C11.8517 13.4777 11.8636 13.4924 11.8768 13.507C12.9554 14.7781 14.0333 16.0484 15.1119 17.3194C15.1203 17.3292 15.1266 17.3424 15.1335 17.3536L15.1328 17.3529Z" fill="#025714"/>
<path d="M14.9226 17.2414C14.4659 17.2547 14.0085 17.2672 13.5512 17.2812C13.5442 17.2714 13.5386 17.2603 13.5302 17.2505C13.2632 16.9347 12.9948 16.6188 12.7271 16.3037C11.9483 15.3855 11.1695 14.4672 10.39 13.5497C10.3691 13.5246 10.3586 13.5002 10.3579 13.4674C10.3523 13.2485 10.3454 13.0296 10.3391 12.8113C10.3384 12.7953 10.3377 12.7793 10.3377 12.7611C10.3572 12.7597 10.3684 12.7583 10.3809 12.7583C10.5664 12.7528 10.7518 12.7528 10.9366 12.7423C11.1562 12.7305 11.3765 12.7193 11.5948 12.6907C11.8967 12.651 12.1832 12.5555 12.444 12.3937C12.7856 12.1804 13.0234 11.8882 13.1119 11.4887C13.1321 11.3974 13.1363 11.3026 13.1489 11.2036C12.094 11.2335 11.053 11.2635 10.0051 11.2935C10.017 11.2733 10.0246 11.2586 10.0337 11.2454C10.1857 11.0014 10.3384 10.7594 10.4897 10.5147C10.5085 10.4847 10.528 10.4722 10.565 10.4701C11.3633 10.4485 12.1616 10.4255 12.9599 10.4025C12.976 10.4018 12.992 10.4011 13.0129 10.4011C13.0066 10.385 13.0038 10.3753 12.9983 10.3655C12.946 10.2853 12.8993 10.1996 12.8386 10.1264C12.6573 9.90464 12.4133 9.78054 12.1407 9.70733C11.8256 9.62227 11.5027 9.60624 11.1792 9.61042C10.7888 9.616 10.399 9.62924 10.0086 9.639C9.99327 9.639 9.97793 9.6404 9.95562 9.6404C9.96956 9.61669 9.97863 9.60205 9.98699 9.58811C10.1397 9.34478 10.291 9.10145 10.443 8.85742C10.4513 8.84487 10.4562 8.83023 10.4625 8.81699C12.2181 8.76679 13.9744 8.71728 15.7307 8.66639C15.7244 8.67824 15.7195 8.69149 15.7118 8.70334C15.5564 8.95225 15.4002 9.20185 15.2454 9.45145C15.228 9.48004 15.2091 9.4905 15.1764 9.49119C14.7427 9.50235 14.3097 9.5156 13.8768 9.52745C13.8607 9.52815 13.8454 9.52815 13.8196 9.52884C14.0455 9.77287 14.1773 10.0538 14.2519 10.3655C14.7615 10.3509 15.2684 10.3362 15.7795 10.3216C15.7739 10.3327 15.7704 10.339 15.7669 10.3439C15.6059 10.6012 15.4455 10.8591 15.2837 11.1157C15.2754 11.1297 15.251 11.1401 15.2335 11.1408C14.9323 11.1506 14.6318 11.1596 14.3306 11.1666C14.2986 11.168 14.2846 11.175 14.2804 11.2098C14.2728 11.2747 14.2623 11.3395 14.2477 11.403C14.1159 11.9921 13.7778 12.439 13.2876 12.7758C12.8386 13.0839 12.3373 13.252 11.8011 13.3224C11.744 13.3294 11.6868 13.3363 11.6241 13.3447C11.6408 13.3656 11.6526 13.3803 11.6659 13.3949C12.7445 14.6659 13.8224 15.9363 14.901 17.2073C14.9093 17.217 14.9156 17.2303 14.9226 17.2414Z" fill="#69D05A"/>
<path d="M8.68916 16.1618C6.82461 16.3333 6.68558 16.4724 6.51401 18.3369C6.34244 16.4724 6.20342 16.3333 4.33887 16.1618C6.20342 15.9902 6.34244 15.8512 6.51401 13.9866C6.68558 15.8512 6.82461 15.9902 8.68916 16.1618Z" fill="#FFFCFF"/>
<path d="M21.5465 10.5267C20.2991 10.6411 20.2065 10.7348 20.0911 11.9821C19.9767 10.7348 19.883 10.6421 18.6357 10.5267C19.883 10.4123 19.9757 10.3187 20.0911 9.07135C20.2055 10.3187 20.2991 10.4113 21.5465 10.5267Z" fill="#FFFCFF"/>
</svg>
