<svg width="17" height="16" viewBox="0 0 17 16" fill="none" xmlns="http://www.w3.org/2000/svg">
<path d="M1.58946 15.75C1.18516 15.75 0.839048 15.6031 0.551134 15.3094C0.26322 15.0156 0.119263 14.6625 0.119263 14.25V5.25C0.119263 4.8375 0.26322 4.48438 0.551134 4.19063C0.839048 3.89688 1.18516 3.75 1.58946 3.75H3.90502L5.26496 2.25H9.67555V3.75H5.90817L4.56661 5.25H1.58946V14.25H13.3511V7.5H14.8212V14.25C14.8212 14.6625 14.6773 15.0156 14.3894 15.3094C14.1015 15.6031 13.7554 15.75 13.3511 15.75H1.58946ZM13.3511 5.25V3.75H11.8809V2.25H13.3511V0.75H14.8212V2.25H16.2914V3.75H14.8212V5.25H13.3511ZM7.47026 13.125C8.38913 13.125 9.17017 12.7969 9.81339 12.1406C10.4566 11.4844 10.7782 10.6875 10.7782 9.75C10.7782 8.8125 10.4566 8.01562 9.81339 7.35938C9.17017 6.70312 8.38913 6.375 7.47026 6.375C6.55138 6.375 5.77034 6.70312 5.12713 7.35938C4.48392 8.01562 4.16231 8.8125 4.16231 9.75C4.16231 10.6875 4.48392 11.4844 5.12713 12.1406C5.77034 12.7969 6.55138 13.125 7.47026 13.125ZM7.47026 11.625C6.95569 11.625 6.52075 11.4438 6.16546 11.0813C5.81016 10.7188 5.63251 10.275 5.63251 9.75C5.63251 9.225 5.81016 8.78125 6.16546 8.41875C6.52075 8.05625 6.95569 7.875 7.47026 7.875C7.98483 7.875 8.41976 8.05625 8.77506 8.41875C9.13036 8.78125 9.30801 9.225 9.30801 9.75C9.30801 10.275 9.13036 10.7188 8.77506 11.0813C8.41976 11.4438 7.98483 11.625 7.47026 11.625Z" fill="white"/>
</svg>
