<svg width="186" height="129" viewBox="0 0 186 129" fill="none" xmlns="http://www.w3.org/2000/svg">
<g opacity="0.7">
<path opacity="0.32" fill-rule="evenodd" clip-rule="evenodd" d="M100.161 121.858C53.6773 121.858 15.9943 120.021 15.9943 117.753C15.9943 115.485 53.6773 113.647 100.161 113.647C146.646 113.647 184.327 115.486 184.327 117.753C184.327 120.02 146.646 121.858 100.161 121.858Z" fill="black"/>
<path fill-rule="evenodd" clip-rule="evenodd" d="M139.568 46.9486C138.915 46.9486 138.386 48.7704 138.386 51.0163C138.386 53.2622 138.915 55.084 139.568 55.084C140.22 55.084 140.75 53.2632 140.75 51.0163C140.75 48.7694 140.22 46.9486 139.568 46.9486Z" fill="#6A7070"/>
<path d="M139.751 58.9434C140.81 57.8438 141.689 56.1752 141.748 54.3967C141.789 53.2872 141.494 52.1911 140.9 51.2521C140.907 51.2215 140.91 51.1903 140.91 51.159C140.901 51.0221 140.841 50.8937 140.741 50.7997C140.64 50.7058 140.508 50.6535 140.371 50.6535C140.233 50.6535 140.101 50.7058 140.001 50.7997C139.901 50.8937 139.84 51.0221 139.832 51.159C139.834 51.2742 139.875 51.3852 139.948 51.4742C140.021 51.5632 140.122 51.625 140.235 51.6497C140.747 52.4651 141.002 53.415 140.967 54.3766C140.914 55.9691 140.126 57.4631 139.173 58.4507L139.751 58.9434Z" fill="#1A1A18"/>
<path fill-rule="evenodd" clip-rule="evenodd" d="M16.2294 90.9672H15.5176C15.3195 90.9621 15.1274 91.0353 14.9831 91.171C14.8389 91.3067 14.7542 91.4938 14.7476 91.6915V96.1674C14.7542 96.3651 14.8389 96.5522 14.9831 96.6879C15.1274 96.8236 15.3195 96.8968 15.5176 96.8917H16.2294V90.9704V90.9672Z" fill="#E42313"/>
<path fill-rule="evenodd" clip-rule="evenodd" d="M94.5306 18.7874H96.4372V22.9831H97.4466C100.095 22.9831 102.319 21.1623 102.777 18.7874H104.677C104.207 22.1404 101.136 24.7489 97.4466 24.7489H96.4404V80.3204H94.5338L94.5306 18.7874Z" fill="#443F3F"/>
<path d="M15.775 18.7874H17.6806V88.0763H15.775V18.7874Z" fill="#2B2929"/>
<path fill-rule="evenodd" clip-rule="evenodd" d="M108.936 106.731L118.795 106.738V80.7202H109.755H108.117H99.0768V106.738L108.936 106.731Z" fill="#3F3F3F"/>
<path fill-rule="evenodd" clip-rule="evenodd" d="M109.755 80.7202V106.73L118.795 106.738V80.7202H109.755Z" fill="#2B2929"/>
<path fill-rule="evenodd" clip-rule="evenodd" d="M108.117 80.7202V106.73L99.0768 106.738V80.7202H108.117Z" fill="#2B2929"/>
<path fill-rule="evenodd" clip-rule="evenodd" d="M108.117 82.2439H109.755H118.795V80.7202H109.755H108.117H99.0768V82.2439H108.117Z" fill="white"/>
<path fill-rule="evenodd" clip-rule="evenodd" d="M108.936 106.731L118.795 106.738V104.434H109.755H108.117H99.0768V106.738L108.936 106.731Z" fill="#020103"/>
<path fill-rule="evenodd" clip-rule="evenodd" d="M169.991 91.7644C162.073 91.7644 155.654 97.7999 155.654 105.246C155.654 112.692 162.073 118.728 169.991 118.728C177.909 118.728 184.327 112.692 184.327 105.246C184.327 97.7999 177.909 91.7644 169.991 91.7644Z" fill="#020103"/>
<path fill-rule="evenodd" clip-rule="evenodd" d="M169.991 96.1568C164.652 96.1568 160.325 100.226 160.325 105.25C160.325 110.275 164.652 114.344 169.991 114.344C175.329 114.344 179.656 110.275 179.656 105.25C179.656 100.226 175.329 96.1568 169.991 96.1568Z" fill="white"/>
<path fill-rule="evenodd" clip-rule="evenodd" d="M169.991 97.2353C165.287 97.2353 161.473 100.822 161.473 105.246C161.473 109.67 165.286 113.257 169.991 113.257C174.696 113.257 178.509 109.67 178.509 105.246C178.509 100.822 174.696 97.2353 169.991 97.2353Z" fill="#242625"/>
<path fill-rule="evenodd" clip-rule="evenodd" d="M169.991 97.5451C168.785 97.5436 167.591 97.7958 166.489 98.2853C166.848 99.7942 168.279 100.921 169.991 100.921C171.703 100.921 173.135 99.7942 173.486 98.2853C172.386 97.7962 171.195 97.544 169.991 97.5451Z" fill="white"/>
<path fill-rule="evenodd" clip-rule="evenodd" d="M162.589 101.954C162.074 102.976 161.805 104.103 161.805 105.247C161.805 106.39 162.074 107.517 162.589 108.539C164.194 108.201 165.393 106.855 165.393 105.246C165.393 103.637 164.194 102.291 162.589 101.954Z" fill="white"/>
<path fill-rule="evenodd" clip-rule="evenodd" d="M166.489 112.21C167.592 112.697 168.785 112.948 169.99 112.948C171.196 112.948 172.389 112.697 173.492 112.21C173.135 110.702 171.704 109.575 169.996 109.575C168.289 109.575 166.853 110.702 166.494 112.21" fill="white"/>
<path fill-rule="evenodd" clip-rule="evenodd" d="M177.397 108.539C177.912 107.517 178.181 106.39 178.181 105.247C178.181 104.103 177.912 102.976 177.397 101.954C175.792 102.291 174.593 103.637 174.593 105.246C174.593 106.855 175.792 108.207 177.397 108.539Z" fill="white"/>
<path fill-rule="evenodd" clip-rule="evenodd" d="M169.991 101.873C168.01 101.873 166.404 103.384 166.404 105.246C166.404 107.108 168.01 108.619 169.991 108.619C171.972 108.619 173.579 107.109 173.579 105.246C173.579 103.383 171.973 101.873 169.991 101.873Z" fill="#C5C4C5"/>
<path fill-rule="evenodd" clip-rule="evenodd" d="M169.991 102.318C168.271 102.318 166.878 103.629 166.878 105.246C166.878 106.863 168.271 108.171 169.991 108.171C171.711 108.171 173.105 106.861 173.105 105.243C173.105 103.625 171.711 102.315 169.991 102.315" fill="#45413B"/>
<path fill-rule="evenodd" clip-rule="evenodd" d="M169.991 103.934C169.22 103.934 168.596 104.521 168.596 105.246C168.596 105.971 169.22 106.559 169.991 106.559C170.762 106.559 171.387 105.971 171.387 105.246C171.387 104.521 170.762 103.934 169.991 103.934Z" fill="#C5C4C5"/>
<path fill-rule="evenodd" clip-rule="evenodd" d="M169.991 102.642C169.896 102.647 169.805 102.681 169.728 102.737C169.652 102.794 169.594 102.872 169.562 102.961C169.529 103.05 169.523 103.147 169.545 103.239C169.567 103.332 169.616 103.416 169.685 103.481C169.754 103.546 169.841 103.59 169.934 103.606C170.028 103.623 170.125 103.612 170.212 103.574C170.299 103.537 170.374 103.474 170.426 103.395C170.479 103.316 170.507 103.223 170.507 103.128C170.503 102.995 170.446 102.87 170.349 102.779C170.253 102.688 170.124 102.638 169.991 102.642Z" fill="#C5C4C5"/>
<path fill-rule="evenodd" clip-rule="evenodd" d="M169.991 106.883C169.896 106.888 169.805 106.922 169.728 106.978C169.652 107.035 169.594 107.113 169.562 107.202C169.529 107.292 169.523 107.388 169.545 107.481C169.567 107.573 169.616 107.657 169.685 107.722C169.755 107.787 169.841 107.831 169.935 107.847C170.029 107.864 170.125 107.853 170.213 107.815C170.3 107.777 170.374 107.715 170.427 107.635C170.479 107.556 170.507 107.463 170.507 107.368C170.502 107.236 170.446 107.11 170.349 107.019C170.252 106.928 170.124 106.879 169.991 106.883Z" fill="#C5C4C5"/>
<path fill-rule="evenodd" clip-rule="evenodd" d="M172.244 104.761C172.149 104.766 172.058 104.8 171.982 104.857C171.905 104.914 171.848 104.991 171.815 105.081C171.783 105.17 171.777 105.267 171.8 105.359C171.822 105.452 171.87 105.535 171.94 105.6C172.009 105.665 172.096 105.709 172.189 105.725C172.283 105.742 172.38 105.73 172.467 105.693C172.554 105.655 172.629 105.593 172.681 105.513C172.733 105.434 172.761 105.341 172.761 105.246C172.757 105.113 172.7 104.988 172.603 104.897C172.506 104.806 172.377 104.757 172.244 104.761Z" fill="#C5C4C5"/>
<path fill-rule="evenodd" clip-rule="evenodd" d="M167.735 104.761C167.64 104.766 167.548 104.799 167.472 104.856C167.396 104.913 167.338 104.991 167.305 105.08C167.273 105.169 167.267 105.266 167.289 105.359C167.311 105.451 167.36 105.535 167.429 105.6C167.498 105.665 167.585 105.709 167.679 105.725C167.773 105.742 167.869 105.73 167.956 105.693C168.044 105.655 168.118 105.593 168.17 105.513C168.223 105.434 168.251 105.341 168.251 105.246C168.246 105.113 168.19 104.988 168.093 104.897C167.996 104.806 167.867 104.757 167.735 104.761Z" fill="#C5C4C5"/>
<path d="M73.9795 80.7001H99.0768V110.399H73.9795V80.7001Z" fill="#443F3F"/>
<path fill-rule="evenodd" clip-rule="evenodd" d="M108.046 106.666H59.1916C59.2107 106.959 59.2213 107.254 59.2213 107.551C59.2217 108.738 59.0671 109.919 58.7616 111.066H108.046V106.666Z" fill="#E84B53"/>
<path fill-rule="evenodd" clip-rule="evenodd" d="M129.61 112.155C141.063 102.149 146.558 86.5971 148.868 71.3984L154.398 82.3317L151.425 82.5431C151.167 82.5611 150.554 82.7863 150.447 84.0732L148.335 109.427L141.911 112.159L129.61 112.155Z" fill="#2B2929"/>
<path fill-rule="evenodd" clip-rule="evenodd" d="M153.492 82.9195L144.383 65.4653L148.14 64.132L156.648 81.4645L154.441 83.2198C154.09 83.5 153.744 83.3255 153.488 82.9195" fill="#443F3F"/>
<path fill-rule="evenodd" clip-rule="evenodd" d="M153.492 82.9195L144.383 65.4653L145.16 65.1894L155.514 82.3707L154.44 83.225C154.089 83.5052 153.743 83.3308 153.487 82.9247" fill="#2B2929"/>
<path fill-rule="evenodd" clip-rule="evenodd" d="M22.7564 76.6609L17.975 61.0117C17.6244 59.8634 17.3903 58.5089 16.2199 57.8237C15.81 57.5837 15.4244 57.5943 15.2571 58.105C14.7275 59.7112 15.6808 75.6575 15.7666 78.4415H15.775V76.6609H22.7564Z" fill="#020103"/>
<path fill-rule="evenodd" clip-rule="evenodd" d="M22.7564 76.6609L17.975 61.0117C17.6244 59.8634 17.3903 58.5089 16.2199 57.8237C15.9021 57.6387 15.6002 57.6028 15.4022 57.8322C15.9456 58.3746 16.8703 58.7024 16.9232 60.0675C16.9762 61.4326 21.3879 73.363 22.7564 76.6609Z" fill="#28282A"/>
<path fill-rule="evenodd" clip-rule="evenodd" d="M13.8737 18.7874H15.7803V88.0805H14.827C14.5818 88.0868 14.344 87.9961 14.1654 87.8282C13.9869 87.6602 13.882 87.4286 13.8737 87.1839V18.7874Z" fill="#443B3C"/>
<path fill-rule="evenodd" clip-rule="evenodd" d="M74.1564 76.1005H99.0768V80.7001H74.1564C72.8112 80.7001 71.7106 79.6659 71.7106 78.4003C71.7106 77.1346 72.8112 76.1005 74.1564 76.1005Z" fill="#020103"/>
<path fill-rule="evenodd" clip-rule="evenodd" d="M74.1564 76.1005H97.2962L97.1713 76.9887C97.1713 76.9887 86.9063 77.2202 79.4557 76.9887C73.1745 76.793 72.0729 77.9202 72.4055 80.0022C72.1873 79.7959 72.0132 79.5476 71.8938 79.2722C71.7743 78.9969 71.712 78.7003 71.7106 78.4003C71.7106 77.1314 72.8112 76.1005 74.1564 76.1005Z" fill="#28282A"/>
<path fill-rule="evenodd" clip-rule="evenodd" d="M122.46 76.1195H99.2367V80.7201H122.46C123.805 80.7201 124.906 79.685 124.906 78.4203C124.906 77.1515 123.805 76.1205 122.46 76.1205" fill="#020103"/>
<path fill-rule="evenodd" clip-rule="evenodd" d="M122.46 76.1195H99.2367V76.6122C107.451 76.6122 118.567 75.9207 124.905 78.3601C124.871 77.1219 123.784 76.1195 122.46 76.1195Z" fill="#28282A"/>
<path fill-rule="evenodd" clip-rule="evenodd" d="M41.0725 93.7576C33.7352 93.7576 27.7877 99.3512 27.7877 106.251C27.7877 113.15 33.7352 118.745 41.0725 118.745C48.4098 118.745 54.3573 113.152 54.3573 106.252C54.3573 99.3512 48.4098 93.7587 41.0725 93.7587" fill="#020103"/>
<path fill-rule="evenodd" clip-rule="evenodd" d="M41.0725 98.4884C36.5179 98.4884 32.818 101.964 32.818 106.251C32.818 110.537 36.5136 114.013 41.0725 114.013C45.6314 114.013 49.3271 110.537 49.3271 106.251C49.3271 101.964 45.6314 98.4884 41.0725 98.4884Z" fill="white"/>
<path fill-rule="evenodd" clip-rule="evenodd" d="M41.0725 99.4094C37.0549 99.4094 33.7978 102.476 33.7978 106.251C33.7978 110.025 37.0549 113.092 41.0725 113.092C45.0902 113.092 48.3473 110.025 48.3473 106.251C48.3473 102.476 45.0902 99.4094 41.0725 99.4094Z" fill="#242625"/>
<path fill-rule="evenodd" clip-rule="evenodd" d="M41.0725 99.6737C40.0422 99.6729 39.0233 99.8891 38.0823 100.308C38.3884 101.596 39.6108 102.558 41.0725 102.558C42.5342 102.558 43.7566 101.596 44.0616 100.308C43.1211 99.889 42.1025 99.6728 41.0725 99.6737Z" fill="white"/>
<path fill-rule="evenodd" clip-rule="evenodd" d="M34.7479 103.439C34.3078 104.311 34.0785 105.274 34.0785 106.251C34.0785 107.227 34.3078 108.19 34.7479 109.062C36.1185 108.774 37.1417 107.625 37.1417 106.251C37.1417 104.876 36.1185 103.727 34.7479 103.439Z" fill="white"/>
<path fill-rule="evenodd" clip-rule="evenodd" d="M38.0823 112.198C39.0241 112.614 40.0423 112.829 41.072 112.829C42.1016 112.829 43.1199 112.614 44.0616 112.198C43.7566 110.909 42.5342 109.947 41.0725 109.947C39.6108 109.947 38.3884 110.909 38.0823 112.198Z" fill="white"/>
<path fill-rule="evenodd" clip-rule="evenodd" d="M47.3972 109.062C47.8373 108.19 48.0665 107.227 48.0665 106.251C48.0665 105.274 47.8373 104.311 47.3972 103.439C46.0265 103.727 45.0033 104.876 45.0033 106.251C45.0033 107.625 46.0265 108.774 47.3972 109.062Z" fill="white"/>
<path fill-rule="evenodd" clip-rule="evenodd" d="M41.0725 103.37C39.3777 103.37 38.0092 104.66 38.0092 106.251C38.0092 107.841 39.3809 109.131 41.0725 109.131C42.7641 109.131 44.1358 107.842 44.1358 106.251C44.1358 104.659 42.7641 103.37 41.0725 103.37Z" fill="#C5C4C5"/>
<path fill-rule="evenodd" clip-rule="evenodd" d="M41.0725 103.751C39.6034 103.751 38.4139 104.87 38.4139 106.251C38.4139 107.631 39.6034 108.751 41.0725 108.751C42.5417 108.751 43.7312 107.633 43.7312 106.251C43.7312 104.869 42.5417 103.751 41.0725 103.751Z" fill="#45413B"/>
<path fill-rule="evenodd" clip-rule="evenodd" d="M41.0725 105.13C40.4137 105.13 39.8809 105.632 39.8809 106.251C39.8809 106.869 40.4105 107.371 41.0725 107.371C41.7345 107.371 42.2641 106.87 42.2641 106.251C42.2641 105.631 41.7345 105.13 41.0725 105.13Z" fill="#C5C4C5"/>
<path fill-rule="evenodd" clip-rule="evenodd" d="M41.0725 104.027C40.9914 104.032 40.9134 104.06 40.8482 104.108C40.783 104.157 40.7334 104.223 40.7056 104.3C40.6779 104.376 40.6731 104.459 40.6919 104.538C40.7107 104.617 40.7522 104.688 40.8114 104.744C40.8706 104.8 40.9448 104.837 41.0249 104.851C41.1049 104.865 41.1874 104.855 41.262 104.823C41.3367 104.791 41.4002 104.738 41.4449 104.67C41.4895 104.602 41.5132 104.522 41.5132 104.441C41.5121 104.385 41.4997 104.33 41.4769 104.278C41.4541 104.227 41.4211 104.18 41.3801 104.142C41.3391 104.103 41.2907 104.073 41.2379 104.053C41.1851 104.034 41.1289 104.025 41.0725 104.027Z" fill="#C5C4C5"/>
<path fill-rule="evenodd" clip-rule="evenodd" d="M41.0725 107.648C40.9914 107.653 40.9134 107.681 40.8482 107.73C40.783 107.778 40.7334 107.845 40.7056 107.921C40.6779 107.998 40.6731 108.08 40.6919 108.159C40.7107 108.238 40.7522 108.31 40.8114 108.366C40.8706 108.421 40.9448 108.458 41.0249 108.472C41.1049 108.486 41.1874 108.477 41.262 108.445C41.3367 108.412 41.4002 108.359 41.4449 108.291C41.4895 108.223 41.5132 108.144 41.5132 108.063C41.5093 107.95 41.4608 107.843 41.3783 107.765C41.2958 107.687 41.1859 107.645 41.0725 107.648Z" fill="#C5C4C5"/>
<path fill-rule="evenodd" clip-rule="evenodd" d="M42.9961 105.836C42.9149 105.841 42.8369 105.869 42.7717 105.918C42.7065 105.966 42.657 106.033 42.6292 106.109C42.6014 106.185 42.5966 106.268 42.6154 106.347C42.6342 106.426 42.6758 106.498 42.735 106.553C42.7941 106.609 42.8684 106.646 42.9484 106.66C43.0285 106.674 43.111 106.665 43.1856 106.632C43.2602 106.6 43.3238 106.547 43.3684 106.479C43.413 106.411 43.4368 106.332 43.4367 106.251C43.4356 106.194 43.4233 106.139 43.4005 106.087C43.3776 106.036 43.3447 105.989 43.3037 105.951C43.2626 105.912 43.2143 105.882 43.1615 105.862C43.1086 105.843 43.0524 105.834 42.9961 105.836Z" fill="#C5C4C5"/>
<path fill-rule="evenodd" clip-rule="evenodd" d="M39.1458 105.836C39.0646 105.841 38.9866 105.869 38.9214 105.918C38.8562 105.966 38.8067 106.033 38.7789 106.109C38.7512 106.185 38.7464 106.268 38.7652 106.347C38.7839 106.426 38.8255 106.498 38.8847 106.553C38.9439 106.609 39.0181 106.646 39.0982 106.66C39.1782 106.674 39.2607 106.665 39.3353 106.632C39.41 106.6 39.4735 106.547 39.5181 106.479C39.5628 106.411 39.5865 106.332 39.5864 106.251C39.5854 106.194 39.573 106.139 39.5502 106.087C39.5273 106.036 39.4944 105.989 39.4534 105.951C39.4124 105.912 39.364 105.882 39.3112 105.862C39.2584 105.843 39.2022 105.834 39.1458 105.836Z" fill="#C5C4C5"/>
<path fill-rule="evenodd" clip-rule="evenodd" d="M94.967 48.1783C93.59 48.1783 92.464 49.2357 92.464 50.532V64.2176C92.464 65.5119 93.5911 66.5703 94.967 66.5703C96.3429 66.5703 97.4699 65.5129 97.4699 64.2176V50.532C97.4699 49.2378 96.344 48.1783 94.967 48.1783Z" fill="#28282A"/>
<path fill-rule="evenodd" clip-rule="evenodd" d="M100.984 49.9748C99.9347 49.9748 99.0778 50.7816 99.0778 51.7723V62.9805C99.0778 63.9671 99.9358 64.7781 100.984 64.7781C102.034 64.7781 102.891 63.9702 102.891 62.9805V51.7723C102.891 50.7847 102.033 49.9748 100.984 49.9748Z" fill="#28282A"/>
<path fill-rule="evenodd" clip-rule="evenodd" d="M99.2367 80.0635V73.0415H117.662C119.713 73.0415 121.395 74.6275 121.395 76.553C121.395 78.4785 119.712 80.0635 117.662 80.0635H99.2367ZM117.662 71.1001H97.1712V82.0049H117.662C120.851 82.0049 123.459 79.5528 123.459 76.553C123.459 73.5532 120.856 71.1001 117.662 71.1001Z" fill="#302F2F"/>
<path fill-rule="evenodd" clip-rule="evenodd" d="M117.662 71.1001H105.134C106.372 72.3309 114.879 71.485 117.778 71.9344C122.942 72.7359 124.028 77.6442 120.009 81.5354C122.038 80.6895 123.459 78.7672 123.459 76.553C123.459 73.5532 120.851 71.1001 117.662 71.1001Z" fill="#2D2929"/>
<path fill-rule="evenodd" clip-rule="evenodd" d="M9.66542 39.1906C7.36372 39.1906 5.48148 40.9617 5.48148 43.1261V62.2192C5.48148 64.3837 7.36372 66.1548 9.66542 66.1548C11.9671 66.1548 13.8504 64.3837 13.8504 62.2192V43.1261C13.8504 40.9617 11.9671 39.1906 9.66542 39.1906Z" fill="#020103"/>
<path fill-rule="evenodd" clip-rule="evenodd" d="M64.9051 106.666L53.6148 90.779C52.2855 88.9085 51.1246 86.8667 48.4331 86.8667H15.954V110C15.954 111.186 16.9868 112.156 18.2473 112.156H27.9307C26.9967 110.328 26.5103 108.304 26.5114 106.252C26.5114 98.6893 33.0309 92.5586 41.0725 92.5586C49.1142 92.5586 55.6337 98.6914 55.6337 106.252C55.6347 108.304 55.1483 110.328 54.2143 112.156H146.712C147.863 111.599 148.654 110.464 148.654 109.175V106.532C148.654 104.689 147.05 103.181 145.091 103.181H140.395C138.307 103.181 136.832 104.751 136.832 106.67L64.9051 106.666Z" fill="#2B2929"/>
<path fill-rule="evenodd" clip-rule="evenodd" d="M119.167 9.59363H18.7388C16.0494 9.59363 13.8504 11.6629 13.8504 14.1911V18.7875H162.15C149.779 10.7092 128.489 9.59363 119.167 9.59363Z" fill="#3A3233"/>
<path fill-rule="evenodd" clip-rule="evenodd" d="M128.738 18.7875H162.15C159.724 17.2014 156.955 15.8882 154.001 14.7959C142.642 14.5844 125.064 14.2344 125.064 14.2344L128.738 18.7875Z" fill="#443F3F"/>
<path fill-rule="evenodd" clip-rule="evenodd" d="M13.8504 14.2344V18.7875H150.434C150.434 18.7875 142.798 15.0454 127.405 14.2344H13.8504Z" fill="#2B2929"/>
<path fill-rule="evenodd" clip-rule="evenodd" d="M97.1712 18.7874H99.0778V22.9831H100.137C102.785 22.9831 105.009 21.1623 105.467 18.7874H107.367C106.897 22.1404 103.826 24.7489 100.137 24.7489H99.0778V80.8354H97.1712V18.7874Z" fill="#302D2D"/>
<path fill-rule="evenodd" clip-rule="evenodd" d="M97.1723 62.7955H84.4266C79.05 62.7955 74.6532 66.9298 74.6532 71.9852V80.7001H77.1709V71.9852C77.1709 68.2368 80.4397 65.163 84.4266 65.163H97.1723V62.7955Z" fill="white"/>
<path d="M146.148 66.7067C146.29 67.2798 146.899 67.6362 147.508 67.5029C148.117 67.3697 148.496 66.7966 148.355 66.2235C148.343 66.178 143.906 50.8852 128.726 62.9192C128.696 62.9435 128.668 62.9678 128.641 62.9943L130.061 64.6322C130.105 64.6056 130.148 64.5763 130.188 64.5444C143.217 54.2117 146.139 66.6708 146.149 66.7067" fill="white"/>
<path d="M136.364 58.7014C135.882 58.8276 135.409 58.9834 134.947 59.1677L135.989 61.0805C136.442 60.9116 136.906 60.7725 137.377 60.6638L136.364 58.7014Z" fill="#1A1A18"/>
<path d="M140.264 58.3767C139.937 58.3343 139.607 58.311 139.278 58.3069L139.314 60.447C139.644 60.4511 139.974 60.4797 140.3 60.5327L140.264 58.3767Z" fill="#1A1A18"/>
<path d="M134.625 59.1856C132.866 60.0189 130.796 61.1333 128.685 62.7966C128.642 62.8304 128.599 62.8643 128.559 62.9023L128.347 62.9488C128.258 62.9689 128.263 62.9488 128.322 63.0186L130.1 64.942C130.183 65.0308 130.168 64.9008 130.193 64.7908C130.233 64.7652 130.273 64.7373 130.31 64.7073C132.42 63.0345 134.092 62.0067 135.763 61.2602L134.625 59.1856Z" fill="#1A1A18"/>
<path fill-rule="evenodd" clip-rule="evenodd" d="M17.9719 103.605H14.3324C14.1344 103.6 13.9425 103.673 13.7982 103.808C13.654 103.944 13.5692 104.131 13.5623 104.328V108.805C13.569 109.003 13.6536 109.19 13.7979 109.326C13.9421 109.461 14.1343 109.535 14.3324 109.529H17.9719C18.1707 109.536 18.3639 109.463 18.5091 109.327C18.6543 109.191 18.7395 109.004 18.7462 108.805V104.329C18.7393 104.132 18.6545 103.945 18.5102 103.809C18.366 103.674 18.1741 103.601 17.9761 103.606" fill="#443F3F"/>
<path d="M15.954 81.2499H47.4151V86.8657H15.954V81.2499Z" fill="#332F2F"/>
<path fill-rule="evenodd" clip-rule="evenodd" d="M169.991 90.0294C161.768 90.0294 154.978 95.7973 153.946 103.266H156.276C157.123 103.266 157.343 102.643 157.49 102.272C158.9 97.0144 163.962 93.1232 169.989 93.1232C173.338 93.1042 176.571 94.3508 179.038 96.6126C179.505 97.044 180.415 96.8156 180.813 96.4011L182.06 95.1132C179.094 91.995 174.787 90.0304 169.984 90.0304" fill="#2B2929"/>
<path fill-rule="evenodd" clip-rule="evenodd" d="M169.991 90.0292C168.28 90.0275 166.578 90.2827 164.943 90.7863C173.67 89.9108 175.561 91.1405 181.302 94.3666C178.385 91.684 174.394 90.0313 169.991 90.0313" fill="#443F3F"/>
<path fill-rule="evenodd" clip-rule="evenodd" d="M154.201 73.8895C153.417 74.2395 153.081 75.1277 153.46 75.8647L168.651 105.924C169.024 106.664 169.969 106.981 170.751 106.627C171.534 106.277 171.87 105.389 171.498 104.653L156.3 74.5926C155.929 73.8525 154.984 73.5353 154.201 73.8906" fill="white"/>
<path d="M157.02 83.6216L160.905 82.7937C160.943 82.7866 160.98 82.7719 161.013 82.7505C161.045 82.7291 161.073 82.7013 161.095 82.6689C161.117 82.6365 161.132 82.6 161.139 82.5617C161.146 82.5234 161.146 82.484 161.138 82.4458C161.116 82.3688 161.066 82.303 160.997 82.2622C160.928 82.2214 160.846 82.2087 160.768 82.2269L156.883 83.057C156.845 83.0638 156.808 83.0782 156.775 83.0995C156.743 83.1208 156.714 83.1485 156.693 83.1809C156.671 83.2133 156.656 83.2498 156.649 83.2881C156.642 83.3264 156.643 83.3658 156.651 83.4038C156.672 83.4809 156.722 83.5469 156.791 83.5877C156.86 83.6286 156.942 83.6411 157.02 83.6227" fill="#383333"/>
<path d="M157.012 83.6237H157.02L159.088 83.1828H159.096C159.133 83.175 159.169 83.1598 159.201 83.1382C159.232 83.1166 159.26 83.0889 159.281 83.0567C159.302 83.0246 159.316 82.9886 159.323 82.9509C159.33 82.9132 159.329 82.8745 159.321 82.837C159.3 82.7612 159.251 82.6962 159.184 82.6553C159.117 82.6144 159.036 82.6008 158.959 82.6171H158.952L156.883 83.059H156.876C156.838 83.0668 156.802 83.082 156.771 83.1036C156.739 83.1253 156.712 83.153 156.691 83.1851C156.67 83.2173 156.656 83.2533 156.649 83.291C156.642 83.3287 156.643 83.3674 156.651 83.4048C156.672 83.4806 156.721 83.5457 156.788 83.5867C156.855 83.6278 156.935 83.6418 157.012 83.6258" fill="#2D292A"/>
<path d="M157.051 83.5392L157.811 83.3774C157.839 83.3721 157.867 83.3611 157.891 83.3452C157.915 83.3292 157.936 83.3085 157.952 83.2844C157.969 83.2603 157.98 83.2331 157.985 83.2046C157.991 83.1761 157.991 83.1467 157.985 83.1183C157.969 83.0609 157.931 83.0119 157.88 82.9815C157.828 82.9512 157.767 82.9419 157.709 82.9555L156.95 83.1173C156.921 83.1217 156.893 83.1321 156.868 83.1479C156.843 83.1636 156.822 83.1843 156.806 83.2087C156.789 83.233 156.778 83.2605 156.773 83.2894C156.768 83.3182 156.769 83.3478 156.776 83.3763C156.792 83.4337 156.829 83.4828 156.881 83.5131C156.932 83.5435 156.993 83.5528 157.051 83.5392Z" fill="#383838"/>
<path d="M157.543 84.697L161.427 83.868C161.465 83.8609 161.502 83.8463 161.535 83.8248C161.567 83.8034 161.595 83.7756 161.617 83.7432C161.639 83.7108 161.654 83.6743 161.661 83.636C161.669 83.5977 161.668 83.5583 161.66 83.5201C161.639 83.4431 161.588 83.3773 161.519 83.3365C161.45 83.2957 161.368 83.2831 161.29 83.3012L157.406 84.1302C157.368 84.1372 157.331 84.1517 157.298 84.1731C157.266 84.1945 157.237 84.2223 157.216 84.2548C157.194 84.2872 157.179 84.3237 157.172 84.3621C157.164 84.4005 157.165 84.4399 157.173 84.4781C157.195 84.5552 157.245 84.621 157.314 84.6618C157.383 84.7026 157.465 84.7152 157.543 84.697Z" fill="#232120"/>
<path d="M157.534 84.697H157.543L159.61 84.255H159.618C159.655 84.2472 159.691 84.232 159.723 84.2104C159.755 84.1888 159.782 84.1611 159.803 84.129C159.824 84.0968 159.838 84.0609 159.845 84.0232C159.852 83.9854 159.852 83.9467 159.843 83.9092C159.823 83.8332 159.774 83.768 159.706 83.7269C159.639 83.6858 159.558 83.672 159.481 83.6882H159.474L157.406 84.1292H157.398C157.36 84.1371 157.325 84.1523 157.293 84.174C157.261 84.1956 157.234 84.2234 157.213 84.2555C157.193 84.2876 157.178 84.3235 157.171 84.3612C157.164 84.3988 157.165 84.4375 157.173 84.4749C157.194 84.5508 157.243 84.6159 157.31 84.6569C157.377 84.6978 157.457 84.7114 157.534 84.6949" fill="#3A3636"/>
<path d="M157.574 84.6135L158.334 84.4506C158.363 84.4461 158.391 84.4355 158.415 84.4197C158.44 84.404 158.461 84.3832 158.477 84.3589C158.494 84.3346 158.505 84.3071 158.51 84.2783C158.515 84.2495 158.514 84.22 158.507 84.1916C158.491 84.1342 158.454 84.0852 158.402 84.0549C158.351 84.0245 158.29 84.0151 158.232 84.0287L157.472 84.1916C157.443 84.1969 157.416 84.2078 157.392 84.2238C157.367 84.2398 157.347 84.2604 157.33 84.2846C157.314 84.3087 157.303 84.3358 157.297 84.3643C157.292 84.3929 157.292 84.4222 157.298 84.4506C157.314 84.508 157.352 84.5571 157.403 84.5874C157.454 84.6178 157.515 84.6271 157.574 84.6135Z" fill="#3F3C3C"/>
<path d="M158.065 85.7702L161.953 84.9401C161.992 84.9333 162.029 84.9188 162.061 84.8976C162.094 84.8763 162.122 84.8486 162.144 84.8162C162.166 84.7838 162.181 84.7474 162.188 84.7091C162.195 84.6708 162.195 84.6314 162.187 84.5933C162.165 84.5161 162.115 84.4501 162.046 84.4093C161.977 84.3685 161.895 84.356 161.817 84.3744L157.933 85.2034C157.894 85.2105 157.858 85.2252 157.825 85.2466C157.792 85.268 157.764 85.2958 157.743 85.3282C157.721 85.3606 157.706 85.3971 157.698 85.4354C157.691 85.4737 157.691 85.5131 157.7 85.5513C157.721 85.6283 157.771 85.6941 157.84 85.7349C157.909 85.7757 157.991 85.7884 158.069 85.7702" fill="#9E2613"/>
<path d="M158.058 85.7712H158.065L160.133 85.3292H160.141C160.179 85.3216 160.215 85.3065 160.246 85.2849C160.278 85.2633 160.305 85.2356 160.326 85.2034C160.347 85.1712 160.361 85.1352 160.368 85.0974C160.375 85.0596 160.374 85.0209 160.366 84.9834C160.345 84.9078 160.296 84.843 160.229 84.8022C160.162 84.7613 160.081 84.7475 160.004 84.7635H159.996L157.928 85.2055H157.921C157.883 85.2132 157.848 85.2282 157.816 85.2498C157.784 85.2714 157.757 85.2991 157.736 85.3313C157.715 85.3634 157.7 85.3994 157.693 85.4372C157.687 85.475 157.687 85.5137 157.695 85.5513C157.717 85.6269 157.766 85.6918 157.833 85.7326C157.9 85.7734 157.981 85.7872 158.058 85.7712Z" fill="#DB0711"/>
<path d="M158.096 85.6877L158.856 85.5249C158.885 85.5196 158.912 85.5086 158.936 85.4927C158.961 85.4767 158.982 85.456 158.998 85.4319C159.014 85.4077 159.025 85.3806 159.031 85.3521C159.036 85.3236 159.036 85.2942 159.03 85.2658C159.014 85.2084 158.977 85.1594 158.925 85.129C158.874 85.0987 158.813 85.0893 158.755 85.103L157.994 85.2658C157.965 85.2703 157.937 85.2807 157.913 85.2963C157.888 85.312 157.867 85.3326 157.851 85.3568C157.834 85.3811 157.823 85.4084 157.818 85.4372C157.813 85.4659 157.814 85.4954 157.82 85.5238C157.836 85.5813 157.874 85.6304 157.925 85.6609C157.976 85.6914 158.038 85.701 158.096 85.6877Z" fill="#E84B53"/>
<path d="M158.587 86.8435L162.472 86.0145C162.511 86.0074 162.547 85.9928 162.58 85.9713C162.613 85.9499 162.641 85.9221 162.662 85.8896C162.684 85.8572 162.699 85.8207 162.706 85.7824C162.713 85.7441 162.713 85.7047 162.704 85.6666C162.683 85.5896 162.633 85.5239 162.564 85.4833C162.495 85.4426 162.413 85.4303 162.335 85.4488L158.451 86.2778C158.412 86.2846 158.375 86.2991 158.343 86.3203C158.31 86.3416 158.282 86.3693 158.26 86.4017C158.238 86.4341 158.223 86.4705 158.216 86.5088C158.209 86.5471 158.209 86.5865 158.218 86.6246C158.239 86.7018 158.289 86.7678 158.358 86.8086C158.427 86.8494 158.509 86.8619 158.587 86.8435Z" fill="#9E2613"/>
<path d="M158.58 86.8456H158.587L160.656 86.4046H160.663C160.701 86.397 160.737 86.3819 160.768 86.3603C160.8 86.3387 160.827 86.311 160.848 86.2788C160.869 86.2466 160.883 86.2106 160.89 86.1728C160.897 86.1351 160.896 86.0963 160.888 86.0589C160.867 85.9831 160.818 85.9182 160.751 85.8773C160.684 85.8364 160.604 85.8227 160.527 85.839H160.519L158.451 86.2809H158.443C158.406 86.2887 158.37 86.3039 158.338 86.3255C158.306 86.3471 158.279 86.3748 158.258 86.4069C158.237 86.4391 158.223 86.475 158.216 86.5128C158.209 86.5505 158.209 86.5892 158.218 86.6267C158.238 86.7027 158.287 86.768 158.355 86.809C158.422 86.8501 158.503 86.8639 158.58 86.8477" fill="#DB0711"/>
<path d="M158.618 86.761L159.379 86.5992C159.407 86.5939 159.434 86.5829 159.459 86.567C159.483 86.551 159.504 86.5303 159.52 86.5062C159.536 86.4821 159.547 86.4549 159.553 86.4264C159.558 86.3979 159.558 86.3686 159.552 86.3401C159.536 86.2827 159.499 86.2337 159.447 86.2034C159.396 86.173 159.335 86.1637 159.277 86.1773L158.516 86.3391C158.487 86.3437 158.46 86.3542 158.435 86.37C158.41 86.3857 158.389 86.4065 158.373 86.4308C158.357 86.4552 158.346 86.4826 158.341 86.5114C158.336 86.5402 158.337 86.5697 158.344 86.5981C158.359 86.6555 158.397 86.7045 158.448 86.7348C158.499 86.7652 158.56 86.7746 158.618 86.761Z" fill="#E84B53"/>
<path d="M159.109 87.9177L162.995 87.0888C163.033 87.0817 163.07 87.067 163.102 87.0456C163.135 87.0242 163.163 86.9964 163.185 86.964C163.207 86.9315 163.222 86.8951 163.229 86.8568C163.236 86.8184 163.236 86.779 163.228 86.7409C163.206 86.6638 163.156 86.598 163.087 86.5572C163.018 86.5164 162.936 86.5038 162.858 86.522L158.973 87.351C158.934 87.358 158.898 87.3727 158.865 87.3942C158.833 87.4156 158.805 87.4434 158.783 87.4759C158.761 87.5083 158.746 87.5448 158.739 87.5831C158.732 87.6214 158.733 87.6608 158.741 87.6989C158.762 87.776 158.812 87.842 158.881 87.8828C158.95 87.9237 159.032 87.9362 159.109 87.9177Z" fill="#9E2613"/>
<path d="M159.102 87.9198H159.109L161.178 87.4778H161.186C161.223 87.47 161.259 87.4549 161.291 87.4333C161.322 87.4116 161.349 87.384 161.37 87.3518C161.391 87.3197 161.406 87.2837 161.413 87.246C161.42 87.2083 161.419 87.1696 161.411 87.1321C161.39 87.056 161.341 86.9908 161.274 86.9497C161.207 86.9086 161.126 86.8948 161.049 86.9111H161.041L158.973 87.352H158.965C158.928 87.3598 158.892 87.3749 158.86 87.3966C158.829 87.4182 158.802 87.4459 158.781 87.4781C158.76 87.5102 158.746 87.5462 158.739 87.5839C158.732 87.6216 158.733 87.6603 158.741 87.6978C158.762 87.7736 158.81 87.8386 158.878 87.8797C158.945 87.9207 159.025 87.9347 159.102 87.9187" fill="#DB0711"/>
<path d="M159.141 87.8353L159.902 87.6724C159.931 87.6679 159.958 87.6574 159.983 87.6416C160.007 87.6259 160.028 87.6053 160.045 87.5811C160.061 87.5569 160.072 87.5296 160.077 87.5009C160.082 87.4722 160.081 87.4428 160.074 87.4144C160.058 87.357 160.021 87.308 159.97 87.2777C159.918 87.2473 159.857 87.238 159.799 87.2516L159.04 87.4134C159.011 87.4178 158.983 87.4282 158.958 87.444C158.933 87.4597 158.912 87.4804 158.896 87.5048C158.879 87.5291 158.868 87.5566 158.863 87.5855C158.858 87.6143 158.859 87.644 158.866 87.6724C158.882 87.7298 158.919 87.7789 158.971 87.8092C159.022 87.8396 159.083 87.8489 159.141 87.8353Z" fill="#E84B53"/>
<path d="M159.633 88.992L163.517 88.162C163.555 88.1552 163.592 88.1407 163.625 88.1194C163.657 88.0981 163.686 88.0705 163.707 88.0381C163.729 88.0057 163.744 87.9693 163.751 87.931C163.759 87.8927 163.758 87.8533 163.75 87.8152C163.729 87.738 163.678 87.672 163.609 87.6312C163.54 87.5903 163.458 87.5778 163.38 87.5963L159.496 88.4253C159.458 88.4322 159.421 88.4468 159.388 88.4682C159.355 88.4896 159.327 88.5174 159.306 88.5498C159.284 88.5823 159.269 88.6188 159.262 88.6572C159.254 88.6956 159.255 88.735 159.263 88.7732C159.284 88.8502 159.335 88.916 159.404 88.9568C159.473 88.9976 159.555 89.0102 159.633 88.992Z" fill="#9E2613"/>
<path d="M159.633 88.992L161.7 88.55H161.709C161.746 88.5422 161.782 88.5271 161.813 88.5056C161.845 88.484 161.872 88.4564 161.893 88.4243C161.914 88.3923 161.928 88.3565 161.935 88.3189C161.942 88.2813 161.941 88.2427 161.933 88.2053C161.913 88.1293 161.864 88.0641 161.796 88.023C161.729 87.9819 161.648 87.9681 161.571 87.9843H161.564L159.496 88.4253H159.488C159.45 88.4331 159.414 88.4482 159.383 88.4698C159.351 88.4915 159.324 88.5192 159.303 88.5513C159.282 88.5835 159.268 88.6195 159.261 88.6572C159.254 88.6949 159.255 88.7336 159.263 88.771C159.284 88.8481 159.335 88.9139 159.404 88.9547C159.473 88.9955 159.555 89.0081 159.633 88.9899" fill="#DB0711"/>
<path d="M159.663 88.9096L160.424 88.7467C160.453 88.7422 160.481 88.7316 160.505 88.7159C160.53 88.7001 160.551 88.6794 160.567 88.655C160.583 88.6307 160.594 88.6032 160.599 88.5744C160.605 88.5456 160.604 88.5161 160.597 88.4877C160.581 88.4304 160.544 88.3814 160.492 88.351C160.441 88.3206 160.38 88.3112 160.322 88.3249L159.562 88.4877C159.533 88.4921 159.505 88.5025 159.48 88.5182C159.456 88.5339 159.435 88.5545 159.418 88.5787C159.402 88.6029 159.391 88.6303 159.386 88.659C159.38 88.6878 159.381 88.7173 159.388 88.7457C159.404 88.8031 159.441 88.8522 159.493 88.8828C159.544 88.9133 159.605 88.9229 159.663 88.9096Z" fill="#E84B53"/>
<path d="M160.153 90.0653L164.037 89.2363C164.075 89.2295 164.112 89.2151 164.145 89.1938C164.178 89.1725 164.206 89.1448 164.227 89.1124C164.249 89.08 164.264 89.0436 164.271 89.0053C164.279 88.967 164.278 88.9276 164.27 88.8895C164.249 88.8123 164.198 88.7463 164.129 88.7055C164.06 88.6647 163.978 88.6522 163.9 88.6706L160.016 89.4996C159.978 89.5065 159.941 89.5211 159.908 89.5424C159.876 89.5638 159.848 89.5914 159.826 89.6238C159.804 89.6561 159.789 89.6925 159.782 89.7307C159.775 89.769 159.775 89.8083 159.783 89.8464C159.804 89.9236 159.855 89.9896 159.924 90.0304C159.993 90.0713 160.075 90.0838 160.153 90.0653Z" fill="#9E2613"/>
<path d="M160.147 90.0674H160.155L162.224 89.6264H162.231C162.269 89.6188 162.304 89.6037 162.336 89.5821C162.368 89.5605 162.395 89.5328 162.416 89.5006C162.437 89.4684 162.451 89.4324 162.458 89.3946C162.465 89.3569 162.464 89.3181 162.456 89.2807C162.435 89.2051 162.386 89.1403 162.319 89.0994C162.251 89.0586 162.171 89.0448 162.094 89.0608H162.086L160.018 89.5027H160.011C159.973 89.5104 159.938 89.5254 159.906 89.547C159.874 89.5685 159.847 89.5961 159.826 89.6281C159.805 89.6602 159.791 89.6961 159.784 89.7337C159.777 89.7713 159.777 89.81 159.785 89.8474C159.806 89.9235 159.855 89.9887 159.922 90.0298C159.99 90.0709 160.07 90.0847 160.147 90.0684" fill="#DB0711"/>
<path d="M160.186 89.9838L160.946 89.822C160.975 89.8167 161.002 89.8058 161.026 89.7898C161.051 89.7738 161.071 89.7532 161.088 89.729C161.104 89.7049 161.115 89.6778 161.121 89.6492C161.126 89.6207 161.126 89.5914 161.12 89.563C161.104 89.5056 161.066 89.4566 161.015 89.4262C160.964 89.3958 160.903 89.3865 160.844 89.4001L160.084 89.5619C160.055 89.5665 160.027 89.577 160.003 89.5928C159.978 89.6086 159.957 89.6293 159.941 89.6537C159.924 89.678 159.913 89.7054 159.908 89.7342C159.903 89.763 159.904 89.7926 159.911 89.821C159.927 89.8783 159.964 89.9273 160.016 89.9577C160.067 89.988 160.128 89.9974 160.186 89.9838Z" fill="#E84B53"/>
<path d="M160.677 91.1395L164.562 90.3105C164.601 90.3035 164.637 90.2888 164.67 90.2674C164.703 90.2459 164.731 90.2181 164.752 90.1857C164.774 90.1532 164.789 90.1168 164.796 90.0784C164.803 90.0401 164.803 90.0008 164.794 89.9627C164.773 89.8857 164.723 89.8199 164.654 89.7791C164.585 89.7383 164.504 89.7256 164.426 89.7438L160.54 90.5728C160.502 90.5798 160.465 90.5945 160.433 90.6159C160.4 90.6374 160.372 90.6651 160.35 90.6976C160.329 90.73 160.314 90.7665 160.306 90.8048C160.299 90.8431 160.299 90.8825 160.307 90.9206C160.329 90.9978 160.379 91.0638 160.448 91.1047C160.517 91.1455 160.599 91.158 160.677 91.1395Z" fill="#9E2613"/>
<path d="M160.67 91.1469H160.677L162.746 90.706H162.753C162.791 90.6982 162.826 90.6831 162.858 90.6614C162.89 90.6398 162.917 90.6121 162.938 90.5799C162.959 90.5478 162.973 90.5118 162.98 90.4741C162.987 90.4364 162.986 90.3977 162.978 90.3602C162.957 90.2843 162.908 90.2191 162.841 90.178C162.774 90.1369 162.694 90.123 162.617 90.1392H162.609L160.54 90.5802H160.533C160.495 90.588 160.46 90.6031 160.428 90.6247C160.396 90.6464 160.369 90.674 160.348 90.7062C160.327 90.7383 160.313 90.7743 160.306 90.812C160.299 90.8497 160.299 90.8884 160.307 90.9259C160.328 91.0018 160.378 91.0669 160.445 91.1079C160.512 91.149 160.592 91.1629 160.67 91.1469Z" fill="#DB0711"/>
<path d="M160.709 91.0571L161.468 90.8942C161.497 90.8898 161.525 90.8794 161.55 90.8637C161.574 90.8481 161.595 90.8275 161.612 90.8032C161.628 90.779 161.639 90.7516 161.644 90.7229C161.65 90.6942 161.649 90.6647 161.642 90.6362C161.626 90.5788 161.589 90.5298 161.537 90.4995C161.486 90.4691 161.425 90.4598 161.367 90.4734L160.607 90.6352C160.578 90.6396 160.55 90.65 160.526 90.6658C160.501 90.6815 160.48 90.7022 160.463 90.7266C160.447 90.7509 160.436 90.7784 160.431 90.8073C160.426 90.8361 160.427 90.8658 160.433 90.8942C160.449 90.9516 160.487 91.0007 160.538 91.031C160.59 91.0614 160.651 91.0707 160.709 91.0571Z" fill="#E84B53"/>
<path d="M161.2 92.2138L165.085 91.3849C165.123 91.3778 165.16 91.3631 165.192 91.3417C165.225 91.3203 165.253 91.2925 165.275 91.2601C165.296 91.2276 165.311 91.1912 165.319 91.1529C165.326 91.1146 165.326 91.0751 165.318 91.037C165.296 90.9598 165.246 90.8938 165.177 90.853C165.108 90.8121 165.026 90.7996 164.948 90.8181L161.064 91.6471C161.025 91.654 160.989 91.6686 160.956 91.69C160.923 91.7114 160.895 91.7392 160.873 91.7716C160.851 91.8041 160.836 91.8406 160.829 91.879C160.822 91.9174 160.822 91.9568 160.831 91.995C160.852 92.072 160.903 92.1378 160.971 92.1786C161.04 92.2194 161.122 92.232 161.2 92.2138Z" fill="#9E2613"/>
<path d="M161.192 92.2149H161.2L163.268 91.7729C163.306 91.766 163.343 91.7514 163.376 91.7301C163.408 91.7088 163.436 91.6811 163.458 91.6487C163.48 91.6164 163.495 91.58 163.502 91.5418C163.51 91.5035 163.509 91.4642 163.501 91.4261C163.48 91.3503 163.431 91.2852 163.364 91.2442C163.297 91.2031 163.217 91.1891 163.14 91.2051H163.132L161.064 91.646H161.056C161.019 91.6537 160.983 91.6687 160.951 91.6903C160.919 91.712 160.892 91.7397 160.871 91.7719C160.85 91.8041 160.836 91.8401 160.829 91.8778C160.823 91.9156 160.823 91.9543 160.832 91.9918C160.852 92.0675 160.901 92.1325 160.969 92.1734C161.036 92.2143 161.116 92.228 161.193 92.2117" fill="#DB0711"/>
<path d="M161.231 92.1314L161.991 91.9686C162.02 91.9641 162.047 91.9537 162.072 91.938C162.097 91.9222 162.118 91.9015 162.134 91.8772C162.151 91.8528 162.162 91.8253 162.167 91.7965C162.172 91.7676 162.171 91.738 162.164 91.7095C162.148 91.6521 162.111 91.6031 162.059 91.5727C162.008 91.5424 161.947 91.533 161.889 91.5467L161.129 91.7095C161.1 91.714 161.073 91.7244 161.048 91.74C161.023 91.7557 161.002 91.7763 160.986 91.8005C160.97 91.8248 160.959 91.8521 160.953 91.8809C160.948 91.9096 160.949 91.9391 160.956 91.9675C160.971 92.0251 161.009 92.0744 161.06 92.105C161.112 92.1355 161.173 92.145 161.231 92.1314Z" fill="#E84B53"/>
<path d="M161.723 93.2882L165.607 92.4581C165.645 92.4513 165.682 92.4368 165.715 92.4156C165.747 92.3943 165.775 92.3666 165.797 92.3342C165.819 92.3018 165.834 92.2654 165.841 92.2271C165.849 92.1888 165.848 92.1494 165.84 92.1113C165.819 92.0341 165.768 91.9681 165.699 91.9273C165.63 91.8865 165.548 91.874 165.47 91.8924L161.586 92.7214C161.547 92.7282 161.511 92.7427 161.478 92.764C161.445 92.7853 161.417 92.8129 161.395 92.8453C161.374 92.8777 161.359 92.9141 161.351 92.9524C161.344 92.9907 161.345 93.0301 161.353 93.0682C161.374 93.1455 161.424 93.2115 161.493 93.2525C161.562 93.2935 161.644 93.3063 161.723 93.2882Z" fill="#9E2613"/>
<path d="M161.715 93.2892H161.723L163.79 92.8472H163.799C163.836 92.8395 163.872 92.8243 163.904 92.8027C163.935 92.781 163.962 92.7533 163.983 92.7212C164.004 92.689 164.018 92.653 164.025 92.6153C164.032 92.5776 164.031 92.5389 164.023 92.5015C164.002 92.4259 163.953 92.3611 163.886 92.3202C163.819 92.2794 163.739 92.2655 163.662 92.2815H163.648L161.581 92.7235H161.572C161.535 92.7313 161.499 92.7464 161.467 92.768C161.436 92.7896 161.409 92.8172 161.388 92.8492C161.367 92.8813 161.353 92.9171 161.346 92.9547C161.339 92.9923 161.339 93.0309 161.348 93.0682C161.368 93.1443 161.417 93.2095 161.485 93.2506C161.552 93.2917 161.633 93.3055 161.71 93.2892" fill="#DB0711"/>
<path d="M161.753 93.2046L162.514 93.0429C162.543 93.0383 162.57 93.0278 162.595 93.012C162.62 92.9962 162.641 92.9755 162.657 92.9511C162.673 92.9268 162.684 92.8993 162.689 92.8705C162.694 92.8417 162.693 92.8122 162.686 92.7838C162.671 92.7265 162.633 92.6775 162.582 92.6471C162.531 92.6167 162.47 92.6074 162.412 92.621L161.652 92.7827C161.623 92.788 161.596 92.799 161.571 92.815C161.547 92.8309 161.526 92.8516 161.51 92.8757C161.494 92.8999 161.483 92.927 161.477 92.9555C161.472 92.984 161.472 93.0134 161.478 93.0418C161.494 93.0992 161.531 93.1482 161.583 93.1786C161.634 93.2089 161.695 93.2183 161.753 93.2046Z" fill="#E84B53"/>
<path d="M162.245 94.3614L166.129 93.5324C166.168 93.5256 166.204 93.5111 166.237 93.4897C166.27 93.4684 166.298 93.4406 166.32 93.4081C166.342 93.3756 166.357 93.339 166.364 93.3006C166.371 93.2622 166.37 93.2227 166.362 93.1845C166.341 93.1074 166.29 93.0416 166.221 93.0008C166.152 92.96 166.07 92.9474 165.992 92.9656L162.108 93.7957C162.07 93.8025 162.033 93.8169 162 93.8382C161.968 93.8595 161.939 93.8872 161.918 93.9196C161.896 93.9519 161.881 93.9884 161.874 94.0267C161.866 94.065 161.867 94.1044 161.875 94.1425C161.896 94.2197 161.947 94.2856 162.016 94.3265C162.085 94.3673 162.167 94.3798 162.245 94.3614Z" fill="#9E2613"/>
<path d="M162.237 94.3635H162.245L164.312 93.9225H164.321C164.358 93.9147 164.394 93.8996 164.426 93.878C164.457 93.8563 164.485 93.8286 164.505 93.7965C164.526 93.7643 164.541 93.7283 164.547 93.6906C164.554 93.6529 164.554 93.6142 164.545 93.5768C164.525 93.5009 164.476 93.4358 164.409 93.3948C164.342 93.3539 164.261 93.3403 164.184 93.3568H164.178L162.11 93.7988H162.103C162.065 93.8066 162.029 93.8218 161.998 93.8434C161.966 93.865 161.939 93.8927 161.918 93.9248C161.897 93.957 161.883 93.9929 161.876 94.0306C161.869 94.0684 161.869 94.1071 161.877 94.1446C161.898 94.2206 161.947 94.2858 162.014 94.3269C162.082 94.368 162.162 94.3818 162.239 94.3656" fill="#DB0711"/>
<path d="M162.271 94.2789L163.031 94.1171C163.059 94.1118 163.087 94.1008 163.111 94.0849C163.135 94.0689 163.156 94.0482 163.172 94.0241C163.188 94 163.2 93.9728 163.205 93.9443C163.211 93.9158 163.21 93.8865 163.204 93.8581C163.188 93.8006 163.151 93.7516 163.1 93.7213C163.048 93.6909 162.987 93.6816 162.929 93.6952L162.168 93.857C162.14 93.8616 162.112 93.8721 162.087 93.8879C162.063 93.9037 162.041 93.9244 162.025 93.9487C162.009 93.9731 161.998 94.0005 161.993 94.0293C161.988 94.0581 161.989 94.0876 161.996 94.116C162.012 94.1734 162.049 94.2225 162.101 94.2528C162.152 94.2832 162.213 94.2925 162.271 94.2789Z" fill="#E84B53"/>
<path d="M162.767 95.4357L166.652 94.6067C166.691 94.5996 166.727 94.5849 166.76 94.5635C166.793 94.5421 166.821 94.5143 166.842 94.4819C166.864 94.4494 166.879 94.413 166.886 94.3747C166.894 94.3364 166.893 94.297 166.885 94.2588C166.864 94.1816 166.814 94.1156 166.745 94.0748C166.676 94.0339 166.594 94.0214 166.516 94.0399L162.63 94.8689C162.592 94.8759 162.555 94.8906 162.523 94.9121C162.49 94.9335 162.462 94.9613 162.44 94.9938C162.419 95.0262 162.404 95.0627 162.397 95.101C162.389 95.1393 162.39 95.1787 162.398 95.2168C162.419 95.2939 162.469 95.3599 162.538 95.4007C162.607 95.4416 162.689 95.4541 162.767 95.4357Z" fill="#9E2613"/>
<path d="M162.76 95.4367H162.767L164.836 94.9947H164.843C164.881 94.9869 164.916 94.9718 164.948 94.9502C164.98 94.9285 165.007 94.9008 165.028 94.8687C165.049 94.8366 165.063 94.8006 165.07 94.7629C165.077 94.7252 165.077 94.6865 165.069 94.649C165.048 94.5727 165 94.5071 164.933 94.4654C164.865 94.4237 164.785 94.4092 164.707 94.4248H164.7L162.631 94.8657H162.624C162.586 94.8734 162.551 94.8884 162.519 94.9101C162.487 94.9317 162.46 94.9594 162.439 94.9916C162.418 95.0238 162.404 95.0598 162.397 95.0975C162.39 95.1353 162.391 95.174 162.399 95.2115C162.42 95.2872 162.469 95.3522 162.536 95.3931C162.603 95.434 162.684 95.4477 162.761 95.4314" fill="#DB0711"/>
<path d="M162.801 95.3533L163.56 95.1904C163.589 95.186 163.617 95.1756 163.642 95.1599C163.666 95.1442 163.687 95.1236 163.704 95.0994C163.72 95.0752 163.731 95.0478 163.736 95.0191C163.742 94.9903 163.741 94.9608 163.734 94.9324C163.719 94.8747 163.681 94.8252 163.63 94.7946C163.578 94.764 163.517 94.7547 163.459 94.7685L162.699 94.9314C162.67 94.9358 162.643 94.9462 162.618 94.9619C162.593 94.9776 162.572 94.9982 162.556 95.0224C162.539 95.0466 162.528 95.074 162.523 95.1027C162.518 95.1315 162.519 95.161 162.525 95.1894C162.541 95.2471 162.578 95.2966 162.63 95.3272C162.681 95.3578 162.743 95.3671 162.801 95.3533Z" fill="#E84B53"/>
<path fill-rule="evenodd" clip-rule="evenodd" d="M158.363 63.9608L156.125 64.1722L157.039 76.497L159.277 76.2855C159.886 76.2284 160.348 75.7114 160.305 75.1383L159.546 64.8987C159.503 64.3256 158.971 63.9026 158.363 63.9608Z" fill="#F5FAFF"/>
<path fill-rule="evenodd" clip-rule="evenodd" d="M156.551 68.9938C157.898 66.3504 158.799 64.685 163.051 63.5219L156.615 63.5431L156.551 68.9938Z" fill="#99A1A2"/>
<path fill-rule="evenodd" clip-rule="evenodd" d="M154.978 61.0678L153.056 59.9121C152.828 59.7746 152.556 59.7282 152.295 59.7821C152.033 59.836 151.802 59.9862 151.647 60.2028L149.641 63.1508C149.57 63.2567 149.521 63.3762 149.498 63.5017C149.475 63.6272 149.478 63.7562 149.507 63.8805C149.536 64.0048 149.59 64.1217 149.667 64.2242C149.743 64.3266 149.839 64.4122 149.95 64.4757L151.872 65.6314C152.1 65.7692 152.372 65.8158 152.634 65.7619C152.895 65.708 153.127 65.5575 153.282 65.3406L155.287 62.3937C155.358 62.2878 155.407 62.1683 155.43 62.0426C155.453 61.917 155.45 61.7879 155.421 61.6635C155.392 61.5391 155.338 61.4219 155.262 61.3195C155.185 61.217 155.088 61.1313 154.977 61.0678" fill="#99A1A2"/>
<path fill-rule="evenodd" clip-rule="evenodd" d="M154.824 61.8216L152.555 60.4566C152.285 60.2943 151.964 60.2396 151.655 60.3033C151.347 60.367 151.073 60.5444 150.89 60.8002L148.52 64.2821C148.436 64.4072 148.378 64.5483 148.351 64.6966C148.324 64.8449 148.328 64.9972 148.362 65.144C148.396 65.2908 148.46 65.429 148.55 65.55C148.641 65.671 148.755 65.7721 148.886 65.8471L151.156 67.2121C151.426 67.3741 151.746 67.4289 152.055 67.3654C152.363 67.3019 152.636 67.1249 152.82 66.8695L155.189 63.3876C155.274 63.2624 155.331 63.1213 155.358 62.9729C155.386 62.8245 155.382 62.6722 155.348 62.5252C155.314 62.3783 155.249 62.24 155.159 62.119C155.069 61.9979 154.955 61.8967 154.824 61.8216Z" fill="#6A7070"/>
<path fill-rule="evenodd" clip-rule="evenodd" d="M156.618 63.5431C152.841 63.8349 150.031 66.9521 150.341 70.5049C150.652 74.0577 153.967 76.7 157.744 76.4071L156.618 63.5431Z" fill="#020103"/>
<path d="M153.388 18.7874H154.004V24.2435H153.388V18.7874Z" fill="#28282A"/>
<path fill-rule="evenodd" clip-rule="evenodd" d="M151.761 20.6443V27.8429C152.319 27.8429 152.775 27.0869 153.225 26.0453L154.003 24.2478L153.225 22.4503C152.753 21.3559 152.245 20.6527 151.761 20.6527" fill="#28282A"/>
<path d="M39.2951 27.5257L42.261 24.7352C42.6216 24.406 43.0926 24.2234 43.5813 24.2234C44.07 24.2234 44.541 24.406 44.9016 24.7352L47.8674 27.5257C48.0385 27.6856 48.1754 27.8783 48.27 28.0924C48.3087 28.1805 48.3399 28.2718 48.3632 28.3652H38.7963C38.8765 28.0434 39.0491 27.7519 39.293 27.5267M41.653 24.1674L38.6872 26.9568C38.4368 27.1908 38.2368 27.4732 38.0993 27.7868C37.9639 28.0963 37.894 28.4304 37.8938 28.7681C37.8971 28.8772 37.9435 28.9805 38.0229 29.0556C38.1023 29.1307 38.2082 29.1714 38.3175 29.1688H48.8356C48.9459 29.172 49.053 29.1313 49.1334 29.0558C49.2138 28.9803 49.261 28.8761 49.2646 28.766C49.2646 28.7522 49.2646 28.7395 49.2646 28.7268C49.2591 28.4023 49.1893 28.0821 49.0591 27.7847C48.9209 27.4718 48.7209 27.1899 48.4712 26.9557L45.5054 24.1664C44.9799 23.6848 44.2925 23.4176 43.5792 23.4176C42.8658 23.4176 42.1785 23.6848 41.653 24.1664V24.1674Z" fill="#494444"/>
<path fill-rule="evenodd" clip-rule="evenodd" d="M44.3974 18.7874H42.7715V24.4138C43.0279 24.301 43.3051 24.2433 43.5852 24.2444C43.8653 24.2455 44.142 24.3054 44.3974 24.4201V18.7874Z" fill="#494444"/>
<path d="M71.5634 27.5257L74.5292 24.7352C74.8899 24.406 75.3609 24.2234 75.8496 24.2234C76.3383 24.2234 76.8093 24.406 77.1699 24.7352L80.1357 27.5257C80.3068 27.6856 80.4437 27.8783 80.5382 28.0924C80.577 28.1805 80.6082 28.2718 80.6314 28.3652H71.0645C71.1448 28.0434 71.3174 27.7519 71.5613 27.5267M73.9223 24.1674L70.9565 26.9568C70.7061 27.1908 70.5061 27.4732 70.3686 27.7868C70.2333 28.0963 70.1633 28.4304 70.1631 28.7681C70.1664 28.8772 70.2129 28.9805 70.2922 29.0556C70.3716 29.1307 70.4775 29.1714 70.5868 29.1688H81.1049C81.2143 29.1705 81.3201 29.1293 81.3993 29.0539C81.4786 28.9786 81.525 28.8752 81.5286 28.766C81.5286 28.7522 81.5286 28.7395 81.5286 28.7268C81.5232 28.4023 81.4533 28.0821 81.3231 27.7847C81.1853 27.4716 80.9853 27.1896 80.7352 26.9557L77.7694 24.1664C77.2439 23.6848 76.5566 23.4176 75.8432 23.4176C75.1299 23.4176 74.4425 23.6848 73.917 24.1664L73.9223 24.1674Z" fill="white"/>
<path fill-rule="evenodd" clip-rule="evenodd" d="M76.6636 18.7874H75.0376V24.4138C75.294 24.301 75.5712 24.2433 75.8513 24.2444C76.1314 24.2455 76.4081 24.3054 76.6636 24.4201V18.7874Z" fill="#494444"/>
<path fill-rule="evenodd" clip-rule="evenodd" d="M41.0725 92.0986C31.8965 92.0986 24.4575 99.0942 24.4575 107.722C24.4568 109.229 24.6868 110.726 25.1397 112.163H28.7294C28.1547 110.753 27.8598 109.245 27.8608 107.722C27.8608 100.861 33.7755 95.2993 41.0725 95.2993C48.3696 95.2993 54.2843 100.861 54.2843 107.722C54.2853 109.245 53.9904 110.753 53.4157 112.163H57.0054C57.4583 110.726 57.6883 109.229 57.6876 107.722C57.6876 99.0942 50.2486 92.0986 41.0725 92.0986Z" fill="#443F3F"/>
<path fill-rule="evenodd" clip-rule="evenodd" d="M136.371 61.6461C136.371 61.6461 133.337 63.0101 131.605 66.1516C131.587 66.1844 131.703 66.2256 131.723 66.2024C132.94 64.7791 134.123 63.5071 136.788 62.4117L136.371 61.6461Z" fill="#1A1A18"/>
<path fill-rule="evenodd" clip-rule="evenodd" d="M135.988 61.0794C136.154 61.0688 136.529 61.257 136.437 61.6197L136.86 62.3895C137.602 62.1219 137.708 61.5552 137.374 60.6638C136.903 60.773 136.438 60.9118 135.984 61.0794" fill="#1A1A18"/>
<path fill-rule="evenodd" clip-rule="evenodd" d="M18.4041 88.5437V102.383C18.4041 102.383 19.8817 89.9912 30.0418 88.6018L18.4041 88.5437Z" fill="#443F3F"/>
<path fill-rule="evenodd" clip-rule="evenodd" d="M97.2221 105.421V82.6361H75.5471C75.5471 82.6361 94.02 88.1662 97.2221 105.421Z" fill="#2B2929"/>
<path fill-rule="evenodd" clip-rule="evenodd" d="M148.803 85.3314C148.803 85.3314 145.683 101.743 137.617 107.302H146.606L148.803 85.3314Z" fill="#443B3C"/>
<path fill-rule="evenodd" clip-rule="evenodd" d="M181.751 95.0666C180.967 95.7127 179.777 97.4468 178.538 95.8808C179.98 96.7542 180.619 94.7177 181.751 95.0666Z" fill="#443F3F"/>
<path fill-rule="evenodd" clip-rule="evenodd" d="M161.331 95.8365C157.69 98.0157 157.901 103.861 154.942 103.074C156.998 102.875 157.424 96.5185 161.331 95.8365Z" fill="#443F3F"/>
<path fill-rule="evenodd" clip-rule="evenodd" d="M47.2394 76.6503H15.7804V81.251H47.2394C48.5846 81.251 49.6851 80.2158 49.6851 78.9501C49.6851 77.6844 48.5846 76.6503 47.2394 76.6503Z" fill="#020103"/>
<path fill-rule="evenodd" clip-rule="evenodd" d="M47.2394 76.6503H22.7596C29.4412 78.2142 37.9298 77.6612 41.8649 77.5385C47.6842 77.3577 48.9257 78.8349 48.8113 80.7107C49.0807 80.5027 49.2993 80.2363 49.4507 79.9317C49.6021 79.6271 49.6822 79.2922 49.6851 78.9522C49.6851 77.6834 48.5846 76.6524 47.2394 76.6524" fill="#28282A"/>
<path fill-rule="evenodd" clip-rule="evenodd" d="M15.775 63.3453H28.5196C33.8963 63.3453 38.2931 67.4797 38.2931 72.535V81.251H35.7753V72.5371C35.7753 68.7887 32.5066 65.7149 28.5196 65.7149H15.775V63.3453Z" fill="white"/>
<path fill-rule="evenodd" clip-rule="evenodd" d="M9.66544 40.6043C7.8298 40.6043 6.23355 41.6194 5.4815 43.0817C5.50586 40.9374 7.37963 39.1895 9.66544 39.1895C11.9512 39.1895 13.825 40.9374 13.8494 43.0817C13.0973 41.6194 11.5011 40.6043 9.66544 40.6043Z" fill="#28282A"/>
<path d="M158.034 85.7956L161.919 84.9666C161.957 84.9597 161.994 84.9451 162.026 84.9237C162.059 84.9023 162.087 84.8745 162.109 84.842C162.131 84.8096 162.146 84.7731 162.153 84.7347C162.16 84.6963 162.16 84.6569 162.152 84.6187C162.13 84.5416 162.08 84.4758 162.011 84.435C161.942 84.3942 161.86 84.3816 161.782 84.3998L157.898 85.2288C157.859 85.2359 157.823 85.2506 157.79 85.272C157.757 85.2934 157.729 85.3212 157.708 85.3536C157.686 85.386 157.671 85.4225 157.663 85.4608C157.656 85.4991 157.657 85.5385 157.665 85.5767C157.686 85.6537 157.736 85.7195 157.805 85.7603C157.874 85.8011 157.956 85.8138 158.034 85.7956Z" fill="#232120"/>
<path d="M158.024 85.7977H158.031L160.1 85.3557H160.107C160.145 85.3479 160.18 85.3328 160.212 85.3112C160.244 85.2895 160.271 85.2618 160.292 85.2296C160.313 85.1975 160.327 85.1615 160.334 85.1238C160.341 85.0861 160.34 85.0474 160.332 85.01C160.311 84.9342 160.262 84.8691 160.195 84.828C160.128 84.787 160.048 84.773 159.971 84.789H159.962L157.894 85.2299H157.887C157.849 85.2377 157.814 85.2528 157.782 85.2745C157.75 85.2961 157.723 85.3238 157.702 85.3559C157.681 85.388 157.667 85.424 157.66 85.4617C157.653 85.4994 157.653 85.5382 157.661 85.5757C157.682 85.6517 157.731 85.7169 157.799 85.758C157.866 85.7991 157.946 85.8129 158.024 85.7967" fill="#3A3636"/>
<path d="M158.062 85.7131L158.822 85.5502C158.851 85.5458 158.879 85.5354 158.904 85.5197C158.928 85.5041 158.949 85.4835 158.966 85.4592C158.982 85.435 158.993 85.4076 158.998 85.3789C159.004 85.3502 159.003 85.3207 158.996 85.2922C158.98 85.2347 158.943 85.1855 158.891 85.1551C158.84 85.1247 158.779 85.1155 158.721 85.1294L157.96 85.2912C157.931 85.2958 157.904 85.3063 157.879 85.3221C157.854 85.3379 157.833 85.3586 157.817 85.3829C157.801 85.4073 157.79 85.4347 157.785 85.4635C157.78 85.4923 157.781 85.5218 157.788 85.5502C157.803 85.6076 157.841 85.6566 157.892 85.6869C157.943 85.7173 158.004 85.7267 158.062 85.7131Z" fill="#3F3C3C"/>
<path d="M158.553 86.8434L162.439 86.0144C162.477 86.0074 162.514 85.9927 162.546 85.9713C162.579 85.9498 162.607 85.922 162.628 85.8896C162.65 85.8571 162.665 85.8207 162.672 85.7823C162.679 85.744 162.679 85.7047 162.671 85.6666C162.649 85.5897 162.599 85.5241 162.53 85.4833C162.462 85.4426 162.38 85.4298 162.302 85.4477L158.417 86.2777C158.378 86.2845 158.342 86.299 158.309 86.3203C158.276 86.3416 158.248 86.3692 158.226 86.4016C158.205 86.434 158.19 86.4704 158.182 86.5088C158.175 86.5471 158.175 86.5864 158.184 86.6245C158.205 86.7017 158.255 86.7677 158.324 86.8086C158.393 86.8494 158.475 86.8619 158.553 86.8434Z" fill="#232120"/>
<path d="M158.546 86.8455H158.553L160.622 86.4046H160.629C160.667 86.397 160.703 86.3819 160.735 86.3603C160.767 86.3387 160.794 86.311 160.815 86.2789C160.836 86.2467 160.85 86.2107 160.857 86.1729C160.864 86.1351 160.863 86.0964 160.855 86.0589C160.834 85.9833 160.784 85.9186 160.717 85.8778C160.65 85.837 160.57 85.8231 160.493 85.8389H160.485L158.417 86.2809H158.409C158.372 86.2887 158.336 86.3038 158.304 86.3255C158.273 86.3471 158.245 86.3748 158.224 86.4069C158.203 86.4391 158.189 86.475 158.182 86.5127C158.175 86.5504 158.176 86.5892 158.184 86.6267C158.205 86.7026 158.254 86.7676 158.321 86.8087C158.388 86.8497 158.469 86.8637 158.546 86.8477" fill="#3A3636"/>
<path d="M158.585 86.761L159.345 86.5992C159.373 86.5939 159.4 86.5829 159.425 86.567C159.449 86.551 159.47 86.5303 159.486 86.5062C159.502 86.4821 159.513 86.4549 159.519 86.4264C159.525 86.3979 159.524 86.3686 159.518 86.3401C159.502 86.2827 159.465 86.2337 159.413 86.2034C159.362 86.173 159.301 86.1637 159.243 86.1773L158.482 86.3391C158.453 86.3437 158.426 86.3542 158.401 86.37C158.376 86.3857 158.355 86.4065 158.339 86.4308C158.323 86.4552 158.312 86.4826 158.307 86.5114C158.302 86.5402 158.303 86.5697 158.31 86.5981C158.326 86.6555 158.363 86.7046 158.415 86.7349C158.466 86.7653 158.527 86.7746 158.585 86.761Z" fill="#3F3C3C"/>
<path d="M159.109 87.9177L162.995 87.0888C163.033 87.0817 163.07 87.067 163.102 87.0456C163.135 87.0242 163.163 86.9964 163.185 86.964C163.207 86.9315 163.222 86.8951 163.229 86.8568C163.236 86.8184 163.236 86.779 163.228 86.7409C163.206 86.6638 163.156 86.598 163.087 86.5572C163.018 86.5164 162.936 86.5038 162.858 86.522L158.973 87.351C158.934 87.358 158.898 87.3727 158.865 87.3942C158.833 87.4156 158.805 87.4434 158.783 87.4759C158.761 87.5083 158.746 87.5448 158.739 87.5831C158.732 87.6214 158.733 87.6608 158.741 87.6989C158.762 87.776 158.812 87.842 158.881 87.8828C158.95 87.9237 159.032 87.9362 159.109 87.9177Z" fill="#232120"/>
<path d="M159.102 87.9198H159.109L161.178 87.4778H161.186C161.223 87.47 161.259 87.4549 161.291 87.4333C161.322 87.4116 161.349 87.384 161.37 87.3518C161.391 87.3197 161.406 87.2837 161.413 87.246C161.42 87.2083 161.419 87.1696 161.411 87.1321C161.39 87.056 161.341 86.9908 161.274 86.9497C161.207 86.9086 161.126 86.8948 161.049 86.9111H161.041L158.973 87.352H158.965C158.928 87.3598 158.892 87.3749 158.86 87.3966C158.829 87.4182 158.802 87.4459 158.781 87.4781C158.76 87.5102 158.746 87.5462 158.739 87.5839C158.732 87.6216 158.733 87.6603 158.741 87.6978C158.762 87.7736 158.81 87.8386 158.878 87.8797C158.945 87.9207 159.025 87.9347 159.102 87.9187" fill="#3A3636"/>
<path d="M159.141 87.8353L159.901 87.6724C159.93 87.668 159.957 87.6576 159.982 87.6419C160.007 87.6263 160.028 87.6057 160.044 87.5814C160.06 87.5572 160.072 87.5298 160.077 87.5011C160.082 87.4724 160.081 87.4428 160.074 87.4144C160.058 87.357 160.021 87.308 159.97 87.2777C159.918 87.2473 159.857 87.238 159.799 87.2516L159.04 87.4134C159.011 87.4178 158.983 87.4282 158.958 87.444C158.933 87.4597 158.912 87.4804 158.896 87.5048C158.879 87.5291 158.868 87.5566 158.863 87.5855C158.858 87.6143 158.859 87.644 158.866 87.6724C158.882 87.7298 158.919 87.7789 158.971 87.8092C159.022 87.8396 159.083 87.8489 159.141 87.8353Z" fill="#3F3C3C"/>
<path d="M159.633 88.992L163.517 88.162C163.555 88.1552 163.592 88.1407 163.625 88.1194C163.657 88.0981 163.686 88.0705 163.707 88.0381C163.729 88.0057 163.744 87.9693 163.751 87.931C163.759 87.8927 163.758 87.8533 163.75 87.8152C163.729 87.738 163.678 87.672 163.609 87.6312C163.54 87.5903 163.458 87.5778 163.38 87.5963L159.496 88.4253C159.458 88.4322 159.421 88.4468 159.388 88.4682C159.355 88.4896 159.327 88.5174 159.306 88.5498C159.284 88.5823 159.269 88.6188 159.262 88.6572C159.254 88.6956 159.255 88.735 159.263 88.7732C159.284 88.8502 159.335 88.916 159.404 88.9568C159.473 88.9976 159.555 89.0102 159.633 88.992Z" fill="#232120"/>
<path d="M159.623 88.9931H159.631L161.698 88.5511H161.707C161.744 88.5432 161.78 88.528 161.811 88.5063C161.843 88.4846 161.87 88.4569 161.891 88.4248C161.912 88.3927 161.926 88.3567 161.933 88.3191C161.94 88.2814 161.939 88.2428 161.931 88.2053C161.91 88.1293 161.861 88.0641 161.794 88.023C161.727 87.9819 161.646 87.9681 161.569 87.9843H161.562L159.494 88.4253H159.485C159.448 88.4331 159.412 88.4482 159.38 88.4698C159.349 88.4915 159.322 88.5192 159.301 88.5513C159.28 88.5835 159.266 88.6195 159.259 88.6572C159.252 88.6949 159.253 88.7336 159.261 88.771C159.282 88.8467 159.331 88.9115 159.399 88.9524C159.466 88.9932 159.546 89.007 159.623 88.991" fill="#3A3636"/>
<path d="M159.663 88.9085L160.424 88.7467C160.453 88.7422 160.481 88.7316 160.505 88.7159C160.53 88.7001 160.551 88.6794 160.567 88.655C160.583 88.6307 160.594 88.6032 160.599 88.5744C160.605 88.5456 160.604 88.5161 160.597 88.4877C160.581 88.4304 160.544 88.3814 160.492 88.351C160.441 88.3206 160.38 88.3112 160.322 88.3249L159.562 88.4877C159.533 88.4921 159.505 88.5025 159.48 88.5182C159.456 88.5339 159.435 88.5545 159.418 88.5787C159.402 88.6029 159.391 88.6303 159.386 88.659C159.38 88.6878 159.381 88.7173 159.388 88.7457C159.404 88.8032 159.441 88.8524 159.493 88.8828C159.544 88.9132 159.605 88.9224 159.663 88.9085Z" fill="#3F3C3C"/>
<path d="M160.153 90.0653L164.037 89.2363C164.075 89.2295 164.112 89.2151 164.145 89.1938C164.178 89.1725 164.206 89.1448 164.227 89.1124C164.249 89.08 164.264 89.0436 164.271 89.0053C164.279 88.967 164.278 88.9276 164.27 88.8895C164.249 88.8123 164.198 88.7463 164.129 88.7055C164.06 88.6647 163.978 88.6522 163.9 88.6706L160.016 89.4996C159.978 89.5064 159.941 89.5209 159.908 89.5422C159.876 89.5635 159.847 89.5911 159.826 89.6235C159.804 89.6559 159.789 89.6923 159.782 89.7306C159.774 89.7689 159.775 89.8083 159.783 89.8464C159.804 89.9236 159.855 89.9896 159.924 90.0304C159.993 90.0713 160.075 90.0838 160.153 90.0653Z" fill="#232120"/>
<path d="M160.147 90.0674H160.155L162.224 89.6264H162.231C162.269 89.6188 162.304 89.6037 162.336 89.5821C162.368 89.5605 162.395 89.5328 162.416 89.5006C162.437 89.4684 162.451 89.4324 162.458 89.3946C162.465 89.3569 162.464 89.3181 162.456 89.2807C162.435 89.2051 162.386 89.1403 162.319 89.0994C162.251 89.0586 162.171 89.0448 162.094 89.0608H162.086L160.018 89.5027H160.011C159.973 89.5105 159.938 89.5257 159.906 89.5473C159.874 89.5689 159.847 89.5966 159.826 89.6287C159.805 89.6609 159.791 89.6968 159.784 89.7346C159.777 89.7723 159.777 89.811 159.785 89.8485C159.806 89.9245 159.855 89.9898 159.922 90.0308C159.99 90.0719 160.07 90.0858 160.147 90.0695" fill="#3A3636"/>
<path d="M160.186 89.9838L160.946 89.822C160.975 89.8167 161.002 89.8058 161.026 89.7898C161.051 89.7738 161.071 89.7532 161.088 89.729C161.104 89.7049 161.115 89.6778 161.121 89.6492C161.126 89.6207 161.126 89.5914 161.12 89.563C161.104 89.5056 161.066 89.4566 161.015 89.4262C160.964 89.3958 160.903 89.3865 160.844 89.4001L160.084 89.5619C160.055 89.5665 160.027 89.577 160.003 89.5928C159.978 89.6086 159.957 89.6293 159.941 89.6537C159.924 89.678 159.913 89.7054 159.908 89.7342C159.903 89.763 159.904 89.7926 159.911 89.821C159.927 89.8783 159.964 89.9273 160.016 89.9577C160.067 89.988 160.128 89.9974 160.186 89.9838Z" fill="#3F3C3C"/>
<path d="M160.677 91.1395L164.562 90.3105C164.601 90.3035 164.637 90.2888 164.67 90.2674C164.703 90.2459 164.731 90.2181 164.752 90.1857C164.774 90.1532 164.789 90.1168 164.796 90.0784C164.803 90.0401 164.803 90.0008 164.794 89.9627C164.773 89.8857 164.723 89.8199 164.654 89.7791C164.585 89.7383 164.504 89.7256 164.426 89.7438L160.54 90.5728C160.502 90.5798 160.465 90.5945 160.433 90.616C160.4 90.6374 160.372 90.6652 160.351 90.6976C160.329 90.7301 160.314 90.7666 160.307 90.8049C160.3 90.8432 160.3 90.8826 160.308 90.9206C160.329 90.9978 160.38 91.0637 160.448 91.1046C160.517 91.1454 160.599 91.158 160.677 91.1395Z" fill="#232120"/>
<path d="M160.67 91.147H160.677L162.746 90.706H162.753C162.791 90.6982 162.826 90.6831 162.858 90.6615C162.89 90.6398 162.917 90.6122 162.938 90.58C162.959 90.5479 162.973 90.5119 162.98 90.4742C162.987 90.4365 162.987 90.3978 162.979 90.3603C162.958 90.2844 162.909 90.2193 162.841 90.1783C162.774 90.1372 162.694 90.1233 162.617 90.1393H162.609L160.54 90.5802H160.533C160.495 90.588 160.46 90.6031 160.428 90.6248C160.396 90.6464 160.369 90.6741 160.348 90.7062C160.327 90.7383 160.313 90.7743 160.306 90.812C160.299 90.8497 160.299 90.8885 160.307 90.926C160.328 91.0019 160.377 91.0669 160.445 91.108C160.512 91.149 160.592 91.163 160.67 91.147Z" fill="#3A3636"/>
<path d="M160.709 91.0571L161.468 90.8942C161.497 90.8898 161.525 90.8794 161.55 90.8637C161.574 90.8481 161.595 90.8275 161.612 90.8032C161.628 90.779 161.639 90.7516 161.644 90.7229C161.65 90.6942 161.649 90.6647 161.642 90.6362C161.626 90.5788 161.589 90.5298 161.537 90.4995C161.486 90.4691 161.425 90.4598 161.367 90.4734L160.606 90.6352C160.577 90.6398 160.55 90.6503 160.525 90.6661C160.5 90.6819 160.479 90.7026 160.463 90.7269C160.447 90.7513 160.436 90.7787 160.431 90.8075C160.426 90.8363 160.427 90.8658 160.433 90.8942C160.449 90.9516 160.487 91.0007 160.538 91.031C160.59 91.0614 160.651 91.0707 160.709 91.0571Z" fill="#3F3C3C"/>
<path d="M161.2 92.2138L165.085 91.3849C165.123 91.3778 165.16 91.3631 165.192 91.3417C165.225 91.3203 165.253 91.2925 165.275 91.2601C165.296 91.2276 165.311 91.1912 165.319 91.1529C165.326 91.1146 165.326 91.0751 165.318 91.037C165.296 90.9598 165.246 90.8938 165.177 90.853C165.108 90.8121 165.026 90.7996 164.948 90.8181L161.064 91.6471C161.025 91.654 160.989 91.6686 160.956 91.69C160.923 91.7114 160.895 91.7392 160.873 91.7716C160.851 91.8041 160.836 91.8406 160.829 91.879C160.822 91.9174 160.822 91.9568 160.831 91.995C160.852 92.072 160.903 92.1378 160.971 92.1786C161.04 92.2194 161.122 92.232 161.2 92.2138Z" fill="#232120"/>
<path d="M161.192 92.2149H161.2L163.268 91.7729H163.275C163.313 91.7651 163.349 91.75 163.38 91.7283C163.412 91.7067 163.439 91.679 163.46 91.6469C163.481 91.6147 163.496 91.5788 163.503 91.5411C163.51 91.5033 163.509 91.4646 163.501 91.4271C163.48 91.3511 163.431 91.2859 163.364 91.2448C163.297 91.2037 163.216 91.1899 163.139 91.2061H163.131L161.064 91.6471H161.055C161.018 91.6548 160.982 91.67 160.95 91.6916C160.919 91.7133 160.892 91.741 160.871 91.7731C160.85 91.8053 160.835 91.8413 160.829 91.879C160.822 91.9167 160.822 91.9554 160.831 91.9928C160.852 92.0684 160.901 92.1332 160.968 92.1741C161.035 92.2149 161.115 92.2288 161.192 92.2128" fill="#3A3636"/>
<path d="M161.231 92.1314L161.992 91.9685C162.021 91.964 162.048 91.9535 162.073 91.9377C162.098 91.9219 162.119 91.9012 162.135 91.8768C162.151 91.8525 162.162 91.825 162.167 91.7962C162.172 91.7674 162.171 91.7379 162.164 91.7095C162.149 91.6522 162.111 91.6032 162.06 91.5728C162.009 91.5424 161.948 91.533 161.89 91.5467L161.129 91.7095C161.1 91.7139 161.073 91.7243 161.048 91.74C161.023 91.7557 161.002 91.7763 160.986 91.8005C160.97 91.8248 160.959 91.8521 160.953 91.8808C160.948 91.9096 160.949 91.9391 160.956 91.9675C160.971 92.0251 161.009 92.0744 161.06 92.1049C161.112 92.1355 161.173 92.145 161.231 92.1314Z" fill="#3F3C3C"/>
<path d="M161.723 93.2871L165.607 92.4581C165.645 92.4513 165.682 92.4368 165.715 92.4156C165.747 92.3943 165.775 92.3666 165.797 92.3342C165.819 92.3018 165.834 92.2654 165.841 92.2271C165.849 92.1888 165.848 92.1494 165.84 92.1113C165.819 92.0341 165.768 91.9681 165.699 91.9273C165.63 91.8865 165.548 91.874 165.47 91.8924L161.586 92.7214C161.547 92.7282 161.511 92.7427 161.478 92.764C161.445 92.7853 161.417 92.8129 161.395 92.8453C161.374 92.8777 161.359 92.9141 161.351 92.9524C161.344 92.9907 161.345 93.0301 161.353 93.0682C161.374 93.1454 161.424 93.2114 161.493 93.2522C161.562 93.2931 161.645 93.3056 161.723 93.2871Z" fill="#232120"/>
<path d="M161.715 93.2892H161.723L163.79 92.8483H163.799C163.836 92.8405 163.872 92.8253 163.904 92.8037C163.935 92.782 163.962 92.7543 163.983 92.7222C164.004 92.69 164.018 92.654 164.025 92.6163C164.032 92.5786 164.031 92.5399 164.023 92.5025C164.002 92.4269 163.953 92.3621 163.886 92.3212C163.819 92.2804 163.739 92.2666 163.662 92.2826H163.648L161.581 92.7245H161.573C161.536 92.7323 161.5 92.7475 161.468 92.7691C161.436 92.7907 161.409 92.8184 161.388 92.8505C161.367 92.8827 161.353 92.9186 161.346 92.9564C161.339 92.9941 161.339 93.0328 161.348 93.0703C161.368 93.1463 161.417 93.2116 161.485 93.2526C161.552 93.2937 161.633 93.3076 161.71 93.2913" fill="#3A3636"/>
<path d="M161.753 93.2047L162.514 93.0429C162.542 93.0376 162.57 93.0266 162.594 93.0107C162.618 92.9947 162.639 92.974 162.655 92.9499C162.671 92.9257 162.683 92.8986 162.688 92.8701C162.694 92.8416 162.693 92.8123 162.687 92.7838C162.672 92.7264 162.634 92.6774 162.583 92.6471C162.531 92.6167 162.47 92.6074 162.412 92.621L161.652 92.7828C161.623 92.7881 161.596 92.799 161.571 92.815C161.547 92.831 161.526 92.8516 161.51 92.8758C161.494 92.8999 161.483 92.927 161.477 92.9556C161.472 92.9841 161.472 93.0134 161.478 93.0418C161.494 93.0992 161.531 93.1483 161.583 93.1786C161.634 93.209 161.695 93.2183 161.753 93.2047Z" fill="#3F3C3C"/>
<path d="M162.245 94.3614L166.129 93.5324C166.168 93.5256 166.204 93.5111 166.237 93.4897C166.27 93.4684 166.298 93.4406 166.32 93.4081C166.342 93.3756 166.357 93.339 166.364 93.3006C166.371 93.2622 166.37 93.2227 166.362 93.1845C166.341 93.1074 166.29 93.0416 166.221 93.0008C166.152 92.96 166.07 92.9474 165.992 92.9656L162.108 93.7957C162.07 93.8025 162.033 93.8169 162 93.8382C161.968 93.8595 161.939 93.8872 161.918 93.9196C161.896 93.9519 161.881 93.9884 161.874 94.0267C161.866 94.065 161.867 94.1044 161.875 94.1425C161.896 94.2197 161.947 94.2856 162.016 94.3265C162.085 94.3673 162.167 94.3798 162.245 94.3614Z" fill="#232120"/>
<path d="M162.237 94.3635H162.245L164.313 93.9225H164.321C164.358 93.9147 164.394 93.8996 164.426 93.878C164.457 93.8563 164.485 93.8286 164.505 93.7965C164.526 93.7643 164.541 93.7283 164.547 93.6906C164.554 93.6529 164.554 93.6142 164.545 93.5768C164.525 93.5009 164.476 93.4358 164.409 93.3948C164.342 93.3539 164.261 93.3403 164.184 93.3568H164.178L162.109 93.7988H162.102C162.064 93.8066 162.028 93.8218 161.997 93.8434C161.965 93.865 161.938 93.8927 161.917 93.9248C161.896 93.957 161.881 93.9929 161.875 94.0306C161.868 94.0684 161.868 94.1071 161.876 94.1446C161.897 94.2206 161.946 94.2858 162.013 94.3269C162.081 94.368 162.161 94.3818 162.238 94.3656" fill="#3A3636"/>
<path d="M162.271 94.2789L163.032 94.1171C163.06 94.1118 163.088 94.1008 163.112 94.0849C163.136 94.0689 163.157 94.0482 163.173 94.0241C163.189 94 163.201 93.9728 163.206 93.9443C163.212 93.9158 163.211 93.8865 163.205 93.8581C163.19 93.8006 163.152 93.7516 163.101 93.7213C163.049 93.6909 162.988 93.6816 162.93 93.6952L162.17 93.857C162.141 93.8616 162.113 93.8721 162.088 93.8879C162.064 93.9037 162.043 93.9244 162.026 93.9487C162.01 93.9731 161.999 94.0005 161.994 94.0293C161.989 94.0581 161.99 94.0876 161.997 94.116C162.013 94.1734 162.05 94.2224 162.101 94.2527C162.152 94.2831 162.213 94.2925 162.271 94.2789Z" fill="#3F3C3C"/>
<path d="M162.767 95.4357L166.652 94.6067C166.691 94.5996 166.727 94.5849 166.76 94.5635C166.793 94.5421 166.821 94.5143 166.842 94.4819C166.864 94.4494 166.879 94.413 166.886 94.3747C166.894 94.3364 166.893 94.297 166.885 94.2588C166.864 94.1816 166.814 94.1156 166.745 94.0748C166.676 94.0339 166.594 94.0214 166.516 94.0399L162.63 94.8689C162.592 94.8759 162.555 94.8906 162.523 94.9121C162.49 94.9335 162.462 94.9613 162.44 94.9938C162.419 95.0262 162.404 95.0627 162.397 95.101C162.389 95.1393 162.39 95.1787 162.398 95.2168C162.42 95.2938 162.47 95.3596 162.538 95.4004C162.607 95.4412 162.689 95.4538 162.767 95.4357Z" fill="#232120"/>
<path d="M162.76 95.4368H162.767L164.836 94.9948H164.843C164.881 94.987 164.916 94.9719 164.948 94.9502C164.98 94.9286 165.007 94.9009 165.028 94.8688C165.049 94.8367 165.063 94.8007 165.07 94.763C165.077 94.7253 165.077 94.6865 165.069 94.649C165.049 94.5727 165 94.5068 164.933 94.4652C164.866 94.4235 164.785 94.409 164.707 94.4249H164.7L162.631 94.8658H162.624C162.586 94.8735 162.551 94.8885 162.519 94.9101C162.487 94.9317 162.46 94.9595 162.439 94.9916C162.418 95.0238 162.404 95.0599 162.397 95.0976C162.39 95.1354 162.391 95.1741 162.399 95.2116C162.42 95.2873 162.469 95.3523 162.536 95.3932C162.603 95.4341 162.684 95.4478 162.761 95.4315" fill="#3A3636"/>
<path d="M162.801 95.3532L163.56 95.1904C163.589 95.1859 163.617 95.1755 163.642 95.1598C163.667 95.1441 163.688 95.1233 163.704 95.099C163.721 95.0746 163.732 95.0471 163.737 95.0183C163.742 94.9894 163.741 94.9598 163.734 94.9313C163.718 94.8739 163.68 94.8249 163.629 94.7945C163.578 94.7642 163.517 94.7548 163.459 94.7685L162.699 94.9313C162.67 94.9358 162.642 94.9462 162.618 94.9619C162.593 94.9776 162.572 94.9983 162.555 95.0227C162.539 95.0471 162.528 95.0746 162.523 95.1034C162.518 95.1323 162.518 95.1619 162.525 95.1904C162.541 95.2478 162.579 95.2968 162.63 95.3272C162.682 95.3575 162.743 95.3669 162.801 95.3532Z" fill="#3F3C3C"/>
</g>
</svg>
