<svg width="31" height="21" viewBox="0 0 31 21" fill="none" xmlns="http://www.w3.org/2000/svg">
<g clip-path="url(#clip0_1_25226)">
<path d="M19.5712 7.50293H11.4298C11.3094 7.50293 11.1939 7.55077 11.1087 7.63593C11.0236 7.72109 10.9757 7.8366 10.9757 7.95703C10.9757 8.07747 11.0236 8.19297 11.1087 8.27813C11.1939 8.36329 11.3094 8.41113 11.4298 8.41113H19.5712C19.6917 8.41113 19.8072 8.36329 19.8923 8.27813C19.9775 8.19297 20.0253 8.07747 20.0253 7.95703C20.0253 7.8366 19.9775 7.72109 19.8923 7.63593C19.8072 7.55077 19.6917 7.50293 19.5712 7.50293ZM22.683 4.77832H8.3181C8.19766 4.77832 8.08216 4.82616 7.997 4.91132C7.91184 4.99648 7.864 5.11199 7.864 5.23242C7.864 5.35286 7.91184 5.46836 7.997 5.55352C8.08216 5.63868 8.19766 5.68652 8.3181 5.68652H22.683C22.8034 5.68652 22.9189 5.63868 23.0041 5.55352C23.0892 5.46836 23.1371 5.35286 23.1371 5.23242C23.1371 5.11199 23.0892 4.99648 23.0041 4.91132C22.9189 4.82616 22.8034 4.77832 22.683 4.77832ZM30.8887 2.20938C30.8461 2.16049 30.7935 2.1213 30.7344 2.09445C30.6754 2.0676 30.6113 2.05371 30.5464 2.05371H2.38771C2.278 2.05371 2.17199 2.09343 2.08929 2.16554C2.0066 2.23764 1.9528 2.33724 1.93785 2.44593L0.288795 14.4288C0.207807 15.0171 0.36059 15.6138 0.714379 16.0908C1.06817 16.5678 1.59479 16.8871 2.18131 16.9804C2.24491 17.4467 2.4513 17.8818 2.77212 18.2261C2.98364 18.4545 3.24029 18.6364 3.52581 18.7604C3.81133 18.8844 4.11948 18.9477 4.43075 18.9463H28.7161C29.3181 18.9456 29.8952 18.7062 30.3208 18.2805C30.7465 17.8549 30.9859 17.2778 30.9866 16.6758V2.64017L30.9963 2.56969C31.0051 2.50544 31.0001 2.44005 30.9815 2.37791C30.963 2.31577 30.9313 2.25826 30.8887 2.20938ZM2.53811 16.1006C2.34352 16.1006 2.15119 16.0589 1.97407 15.9783C1.79694 15.8978 1.63913 15.7802 1.51126 15.6335C1.38339 15.4868 1.28842 15.3145 1.23275 15.128C1.17708 14.9416 1.162 14.7454 1.18852 14.5526L2.78369 2.96191H30.0256L28.3795 14.924C28.3335 15.2496 28.1718 15.5477 27.924 15.7638C27.6761 15.9799 27.3587 16.0995 27.0299 16.1006H2.53811ZM30.0784 16.6758C30.078 17.037 29.9343 17.3832 29.679 17.6386C29.4236 17.894 29.0773 18.0377 28.7161 18.0381H4.43075C4.12737 18.0377 3.83274 17.9364 3.59336 17.75C3.35398 17.5636 3.18348 17.3028 3.10877 17.0088H27.0297C27.5778 17.0069 28.1068 16.8077 28.5199 16.4475C28.933 16.0874 29.2025 15.5905 29.2791 15.0478L30.0784 9.23972V16.6758Z" fill="#1D9B57"/>
</g>
<defs>
<clipPath id="clip0_1_25226">
<rect width="31" height="21" fill="white"/>
</clipPath>
</defs>
</svg>
