<svg width="39" height="39" viewBox="0 0 39 39" fill="none" xmlns="http://www.w3.org/2000/svg">
<rect width="39" height="39" rx="5" fill="#F0F6FB"/>
<path d="M22.2097 12.1465C17.9762 10.4165 13.1577 12.3557 11.2804 16.4829L26.9728 22.8975C28.5239 18.6383 26.4432 13.8777 22.2097 12.1478L22.2097 12.1465Z" fill="#9C2914"/>
<path d="M15.7902 27.8526C20.1273 29.6257 25.0803 27.5469 26.8527 23.2092C26.8952 23.1049 26.9345 23.0013 26.9725 22.8964L11.28 16.4818C11.2343 16.5829 11.1886 16.6852 11.1468 16.7888C9.37372 21.1259 11.4525 26.0789 15.7902 27.8513V27.8526Z" fill="#9C2914"/>
<path d="M20.088 27.9441C20.0513 27.9486 20.0146 27.9544 19.9779 27.9589C19.7977 27.9808 19.6181 27.9969 19.4367 28.0059C18.5093 28.0567 17.5722 27.9473 16.6738 27.6757C16.3713 27.5856 16.0733 27.4756 15.7818 27.3475C15.6434 27.2877 15.5063 27.2239 15.3699 27.1544C15.3473 27.1422 15.3255 27.1319 15.3036 27.119C14.8846 26.9021 14.4779 26.6447 14.093 26.3474C13.9546 26.2399 13.8195 26.1279 13.6869 26.0095C13.62 25.9503 13.5537 25.8891 13.4868 25.8274C12.504 24.8974 11.8089 23.7763 11.4035 22.5754C10.4838 19.8511 11.0605 16.7181 13.1714 14.4875C16.2104 11.2747 21.2979 11.1325 24.5119 14.1728C27.726 17.213 27.8669 22.3005 24.8267 25.5133C24.3066 26.0629 23.7268 26.5231 23.107 26.8919C23.0201 26.944 22.9326 26.9942 22.8438 27.0418C22.7955 27.0682 22.7485 27.0933 22.7003 27.1171C22.5381 27.2008 22.3746 27.2793 22.2092 27.352C22.1223 27.39 22.0342 27.4267 21.9447 27.4621C21.8977 27.4794 21.8501 27.4987 21.8012 27.5155C21.7368 27.5399 21.6731 27.5625 21.61 27.5843C21.5727 27.5972 21.5367 27.6088 21.5 27.621C21.0379 27.7716 20.5636 27.8791 20.086 27.9448L20.088 27.9441Z" fill="#E24229"/>
<path d="M16.9507 26.7586C16.6843 26.6788 16.4211 26.5816 16.1649 26.4696C16.0446 26.4175 15.9248 26.3608 15.8051 26.3003L15.8154 26.3055L15.78 26.2868L15.7659 26.2791L15.7427 26.2675C15.5934 26.1903 15.4473 26.106 15.3025 26.0178L15.3038 27.1183C15.3257 27.1312 15.3482 27.1421 15.3701 27.1537C15.5059 27.2226 15.643 27.2876 15.7813 27.3474C16.0742 27.4755 16.3721 27.5843 16.674 27.675C17.5724 27.9466 18.5095 28.056 19.4375 28.0045L19.4362 27.0456C19.4208 27.0469 19.4047 27.0475 19.3892 27.0488C18.5571 27.0945 17.7385 26.9967 16.9507 26.7586Z" fill="#E2081F"/>
<path d="M20.0883 27.9435L20.0864 26.9749C20.4693 26.915 20.8458 26.8281 21.2056 26.7104C21.2339 26.7001 21.3073 26.6756 21.3073 26.6756C21.3594 26.6582 21.4115 26.6396 21.4624 26.6196L21.4746 26.6151C21.5126 26.6016 21.5499 26.5874 21.5872 26.5733L21.5982 26.5688C21.5982 26.5688 21.6065 26.5656 21.6098 26.5636L21.6111 27.5831C21.5737 27.5959 21.5377 27.6075 21.501 27.6197C21.0389 27.7703 20.5646 27.8778 20.0871 27.9435L20.0883 27.9435Z" fill="#E2081F"/>
<path d="M23.1073 25.7482C22.949 25.8615 22.7862 25.969 22.6188 26.0681C22.5403 26.1144 22.4618 26.1595 22.3826 26.2026C22.3472 26.2226 22.3151 26.2393 22.2822 26.2554L22.2571 26.2676C22.2411 26.276 22.2243 26.2837 22.2082 26.2921L22.2089 27.3508C22.3749 27.2787 22.5384 27.2002 22.6999 27.1159C22.7482 27.092 22.7965 27.0669 22.8434 27.0406C22.9316 26.9923 23.0191 26.9421 23.1067 26.8906L23.106 25.7482L23.1073 25.7482Z" fill="#E2081F"/>
<path d="M25.3925 19.8216C25.4536 22.0233 24.3885 23.9998 22.7216 25.1968C22.4577 25.3873 22.1778 25.5566 21.8869 25.7046C21.7395 25.7799 21.5895 25.8488 21.4357 25.9125C20.9788 26.1017 20.4942 26.2388 19.9889 26.318C19.8165 26.345 19.6408 26.3649 19.4644 26.3778C19.3698 26.3849 19.2746 26.39 19.178 26.3926C17.7866 26.4312 16.4853 26.0206 15.4144 25.2908C13.77 24.1755 12.6669 22.3117 12.6077 20.1775C12.5485 18.0434 13.5473 16.1217 15.126 14.9163C16.1558 14.1285 17.4314 13.6458 18.8228 13.6072C18.9193 13.6046 19.0152 13.604 19.1098 13.6059C19.2874 13.6085 19.4638 13.6188 19.6369 13.6362C20.1453 13.6864 20.637 13.7971 21.1036 13.9599C21.26 14.0146 21.4138 14.0757 21.5651 14.142C21.865 14.2733 22.1527 14.4271 22.4268 14.6022C24.1574 15.7047 25.3307 17.6193 25.3918 19.821L25.3925 19.8216Z" fill="#9C2914"/>
<path d="M15.2291 15.3173L15.3514 24.7767C15.3868 24.8044 15.4215 24.8314 15.4582 24.8578C15.8379 25.1358 16.2518 25.3681 16.6881 25.5496C16.8323 25.6088 16.9796 25.6636 17.1264 25.7112C17.4199 25.8077 17.7198 25.8798 18.0184 25.9287C18.476 26.004 18.9348 26.0252 19.3866 25.9956L19.2322 13.9954C17.7809 13.9407 16.356 14.4131 15.2297 15.3167L15.2291 15.3173Z" fill="#E2081F"/>
<path d="M19.9627 14.069L20.1152 25.9051C20.6179 25.8105 21.1051 25.6528 21.5665 25.4359L21.4256 14.4983C20.9622 14.2949 20.4711 14.1501 19.9627 14.069Z" fill="#E2081F"/>
<path d="M23.0458 24.4467L22.9299 15.4507C22.6609 15.2178 22.3739 15.0118 22.0733 14.8323L22.2053 25.0864C22.5013 24.8998 22.7832 24.6861 23.0458 24.4467Z" fill="#E2081F"/>
<path d="M21.4172 14.2169C24.4871 15.5002 25.9988 18.9582 24.9176 22.059L25.3604 22.2443C26.5433 18.899 24.915 15.1611 21.6025 13.7754C18.2887 12.3898 14.4845 13.8565 12.9341 17.048L13.3769 17.2334C14.825 14.2858 18.3479 12.933 21.4185 14.2169L21.4172 14.2169Z" fill="#9C2914"/>
<path d="M16.396 26.2228C19.8275 27.658 23.7875 26.033 25.2227 22.6014C25.2722 22.4824 25.3173 22.3639 25.3598 22.2442L24.917 22.0589C24.8752 22.1792 24.8307 22.2983 24.7812 22.4174C23.4477 25.6057 19.769 27.1155 16.5807 25.782C13.3924 24.4485 11.8825 20.7698 13.216 17.5815C13.2656 17.4624 13.319 17.3472 13.375 17.2333L12.9322 17.048C12.8769 17.1625 12.8234 17.2777 12.7739 17.3968C11.3387 20.8283 12.9637 24.7883 16.3953 26.2235L16.396 26.2228Z" fill="#9C2914"/>
<path d="M20.9689 24.018C20.5474 24.0303 20.1252 24.0419 19.703 24.0547C19.6965 24.0457 19.6914 24.0354 19.6837 24.0264C19.4372 23.7349 19.1894 23.4433 18.9423 23.1524C18.2234 22.3048 17.5045 21.4572 16.785 20.6103C16.7657 20.5871 16.756 20.5646 16.7554 20.5343C16.7502 20.3323 16.7438 20.1302 16.738 19.9287C16.7374 19.9139 16.7367 19.8991 16.7367 19.8824C16.7547 19.8811 16.765 19.8798 16.7766 19.8798C16.9478 19.8747 17.119 19.8747 17.2896 19.865C17.4923 19.8541 17.6956 19.8438 17.8971 19.8174C18.1758 19.7807 18.4403 19.6925 18.681 19.5432C18.9963 19.3463 19.2158 19.0766 19.2975 18.7079C19.3162 18.6235 19.32 18.536 19.3316 18.4446C18.3579 18.4723 17.397 18.5 16.4297 18.5276C16.4407 18.509 16.4477 18.4955 16.4561 18.4832C16.5964 18.258 16.7374 18.0347 16.877 17.8088C16.8944 17.7811 16.9124 17.7695 16.9472 17.7682C17.6841 17.7483 18.421 17.727 19.1579 17.7058C19.1727 17.7051 19.1875 17.7045 19.2068 17.7045C19.201 17.6897 19.1984 17.6807 19.1933 17.6717C19.145 17.5977 19.1019 17.5185 19.0459 17.4509C18.8786 17.2463 18.6533 17.1317 18.4017 17.0641C18.1108 16.9856 17.8128 16.9708 17.5142 16.9747C17.1538 16.9798 16.794 16.9921 16.4336 17.0011C16.4194 17.0011 16.4053 17.0024 16.3847 17.0024C16.3975 16.9805 16.4059 16.967 16.4136 16.9541C16.5546 16.7295 16.6942 16.5049 16.8345 16.2796C16.8423 16.268 16.8468 16.2545 16.8526 16.2423L21.7155 16.1033C21.7097 16.1142 21.7052 16.1264 21.6981 16.1374C21.5546 16.3671 21.4104 16.5975 21.2675 16.8279C21.2514 16.8543 21.2341 16.864 21.2038 16.8646C20.8035 16.8749 20.4038 16.8872 20.0042 16.8981C19.9894 16.8987 19.9752 16.8987 19.9514 16.8994C20.1599 17.1246 20.2816 17.384 20.3504 17.6717C20.8209 17.6582 21.2888 17.6447 21.7605 17.6311C21.7554 17.6414 21.7521 17.6472 21.7489 17.6517C21.6003 17.8892 21.4522 18.1273 21.3029 18.3642C21.2952 18.377 21.2727 18.3867 21.2566 18.3873C20.9786 18.3964 20.7012 18.4047 20.4231 18.4112C20.3935 18.4124 20.3807 18.4189 20.3768 18.4511C20.3697 18.5109 20.3601 18.5708 20.3466 18.6293C20.2249 19.1732 19.9128 19.5857 19.4604 19.8965C19.0459 20.181 18.5831 20.3361 18.0882 20.4011C18.0355 20.4075 17.9827 20.414 17.9248 20.4217C17.9402 20.441 17.9512 20.4545 17.9634 20.468C18.959 21.6413 19.954 22.8139 20.9496 23.9871C20.9573 23.9962 20.9631 24.0084 20.9695 24.0187L20.9689 24.018Z" fill="#025714"/>
<path d="M20.7752 23.9149C20.3537 23.9271 19.9315 23.9387 19.5093 23.9516C19.5029 23.9426 19.4977 23.9323 19.49 23.9233C19.2435 23.6317 18.9957 23.3402 18.7486 23.0493C18.0297 22.2017 17.3108 21.3541 16.5913 20.5072C16.572 20.484 16.5623 20.4615 16.5617 20.4312C16.5565 20.2291 16.5501 20.027 16.5443 19.8256C16.5437 19.8108 16.543 19.796 16.543 19.7793C16.561 19.778 16.5713 19.7767 16.5829 19.7767C16.7541 19.7715 16.9253 19.7715 17.0959 19.7619C17.2986 19.751 17.502 19.7407 17.7034 19.7143C17.9821 19.6776 18.2466 19.5894 18.4873 19.4401C18.8026 19.2432 19.0221 18.9735 19.1038 18.6047C19.1225 18.5204 19.1264 18.4329 19.1379 18.3415C18.1642 18.3692 17.2033 18.3969 16.236 18.4245C16.247 18.4059 16.2541 18.3924 16.2624 18.3801C16.4027 18.1549 16.5437 17.9315 16.6833 17.7056C16.7007 17.678 16.7187 17.6664 16.7528 17.6645C17.4897 17.6445 18.2266 17.6233 18.9635 17.602C18.9783 17.6014 18.9931 17.6007 19.0124 17.6007C19.0067 17.5859 19.0041 17.5769 18.9989 17.5679C18.9507 17.4939 18.9075 17.4148 18.8515 17.3472C18.6842 17.1425 18.459 17.028 18.2073 16.9604C17.9164 16.8819 17.6184 16.8671 17.3198 16.8709C16.9594 16.8761 16.5997 16.8883 16.2393 16.8973C16.2251 16.8973 16.2109 16.8986 16.1903 16.8986C16.2032 16.8767 16.2116 16.8632 16.2193 16.8503C16.3602 16.6257 16.4999 16.4011 16.6402 16.1759C16.6479 16.1643 16.6524 16.1508 16.6582 16.1385C18.2788 16.0922 19.8999 16.0465 21.5211 15.9995C21.5153 16.0105 21.5108 16.0227 21.5037 16.0336C21.3602 16.2634 21.2161 16.4938 21.0732 16.7242C21.0571 16.7506 21.0397 16.7602 21.0095 16.7609C20.6092 16.7712 20.2095 16.7834 19.8098 16.7943C19.795 16.795 19.7809 16.795 19.7571 16.7956C19.9656 17.0209 20.0872 17.2802 20.1561 17.5679C20.6265 17.5544 21.0944 17.5409 21.5662 17.5274C21.561 17.5377 21.5578 17.5435 21.5546 17.548C21.4059 17.7855 21.2579 18.0236 21.1086 18.2604C21.1009 18.2733 21.0783 18.2829 21.0622 18.2836C20.7842 18.2926 20.5068 18.301 20.2288 18.3074C20.1992 18.3087 20.1863 18.3151 20.1825 18.3473C20.1754 18.4072 20.1657 18.467 20.1522 18.5256C20.0306 19.0694 19.7185 19.4819 19.266 19.7928C18.8515 20.0772 18.3888 20.2324 17.8939 20.2974C17.8411 20.3038 17.7884 20.3102 17.7304 20.3179C17.7459 20.3373 17.7568 20.3508 17.769 20.3643C18.7647 21.5375 19.7596 22.7101 20.7553 23.8834C20.763 23.8924 20.7688 23.9046 20.7752 23.9149Z" fill="#FF6C71"/>
<path d="M15.0205 22.9177C13.2994 23.076 13.1711 23.2044 13.0127 24.9255C12.8543 23.2044 12.726 23.076 11.0049 22.9177C12.726 22.7593 12.8543 22.631 13.0127 20.9099C13.1711 22.631 13.2994 22.7593 15.0205 22.9177Z" fill="#FFFCFF"/>
<path d="M26.8889 17.7164C25.7376 17.822 25.652 17.9085 25.5455 19.0598C25.44 17.9085 25.3535 17.8229 24.2021 17.7164C25.3535 17.6109 25.4391 17.5244 25.5455 16.373C25.6511 17.5244 25.7376 17.61 26.8889 17.7164Z" fill="#FFFCFF"/>
</svg>
