<svg width="28" height="28" viewBox="0 0 28 28" fill="none" xmlns="http://www.w3.org/2000/svg">
<mask id="mask0_1212_40032" style="mask-type:alpha" maskUnits="userSpaceOnUse" x="0" y="0" width="28" height="28">
<rect width="28" height="28" fill="#D9D9D9"/>
</mask>
<g mask="url(#mask0_1212_40032)">
<path d="M12.8334 19.8333H15.1667V14.9333L17.0334 16.8L18.6667 15.1666L14 10.5L9.33337 15.1666L10.9667 16.8L12.8334 14.9333V19.8333ZM4.66671 23.3333C4.02504 23.3333 3.47574 23.1048 3.01879 22.6479C2.56185 22.1909 2.33337 21.6416 2.33337 21V6.99996C2.33337 6.35829 2.56185 5.80899 3.01879 5.35204C3.47574 4.8951 4.02504 4.66663 4.66671 4.66663H11.6667L14 6.99996H23.3334C23.975 6.99996 24.5243 7.22843 24.9813 7.68538C25.4382 8.14232 25.6667 8.69163 25.6667 9.33329V21C25.6667 21.6416 25.4382 22.1909 24.9813 22.6479C24.5243 23.1048 23.975 23.3333 23.3334 23.3333H4.66671ZM4.66671 21H23.3334V9.33329H13.0375L10.7042 6.99996H4.66671V21Z" fill="#1D9B57"/>
</g>
</svg>
