<svg width="117" height="117" viewBox="0 0 117 117" fill="none" xmlns="http://www.w3.org/2000/svg">
<path opacity="0.13" d="M58.6201 107.767C80.2115 107.767 97.7149 105.395 97.7149 102.469C97.7149 99.5429 80.2115 97.171 58.6201 97.171C37.0287 97.171 19.5254 99.5429 19.5254 102.469C19.5254 105.395 37.0287 107.767 58.6201 107.767Z" fill="#22262E"/>
<path d="M74.1462 20.2142C53.508 11.7807 30.0179 21.2338 20.8659 41.3544L97.3666 72.6254C104.928 51.8617 94.7844 28.6539 74.1462 20.2204V20.2142Z" fill="#036319"/>
<path d="M42.851 96.7811C63.9944 105.425 88.1402 95.2908 96.7808 74.1443C96.9879 73.636 97.1793 73.1309 97.3644 72.6195L20.8637 41.3484C20.641 41.841 20.4182 42.3399 20.2143 42.845C11.5706 63.9883 21.7045 88.1342 42.851 96.7748L42.851 96.7811Z" fill="#036319"/>
<path d="M63.8027 97.2272C63.6239 97.2491 63.4451 97.2774 63.2662 97.2993C62.3877 97.406 61.5124 97.4844 60.6276 97.5284C56.1065 97.7762 51.5384 97.2428 47.1585 95.9188C45.6839 95.4796 44.2313 94.9431 42.81 94.3187C42.1354 94.027 41.4672 93.7164 40.802 93.3775C40.6922 93.3179 40.5855 93.2677 40.4789 93.2049C38.4364 92.1476 36.4535 90.8926 34.5773 89.4431C33.9027 88.9192 33.2439 88.3733 32.5976 87.796C32.2713 87.5073 31.9481 87.2093 31.6218 86.9081C26.8309 82.3744 23.4425 76.909 21.4659 71.0545C16.9824 57.7736 19.7936 42.5005 30.0845 31.626C44.8995 15.9638 69.7011 15.2705 85.3696 30.0918C101.038 44.9132 101.725 69.7148 86.9038 85.377C84.3688 88.0564 81.5419 90.2997 78.5206 92.0974C78.097 92.3516 77.6703 92.5963 77.2373 92.8285C77.002 92.9571 76.773 93.0794 76.5377 93.1955C75.747 93.6034 74.9501 93.9862 74.1438 94.3407C73.7202 94.5258 73.2904 94.7047 72.8543 94.8772C72.6253 94.9619 72.3931 95.056 72.1546 95.1376C71.8409 95.2568 71.5303 95.3667 71.2228 95.4733C71.0408 95.5361 70.8651 95.5926 70.6863 95.6522C68.4336 96.3863 66.1213 96.9103 63.7933 97.2303L63.8027 97.2272Z" fill="#3FAA70"/>
<path d="M48.5093 91.4484C47.2104 91.0594 45.9271 90.5856 44.6784 90.0397C44.0917 89.7856 43.5082 89.5095 42.9246 89.2146L42.9748 89.2397L42.8022 89.1487L42.7332 89.111L42.6203 89.0546C41.8924 88.6781 41.1802 88.2671 40.4742 87.8372L40.4805 93.2023C40.5872 93.265 40.697 93.3184 40.8037 93.3749C41.4657 93.7106 42.1339 94.0274 42.8085 94.3192C44.236 94.9436 45.6887 95.4738 47.1602 95.9162C51.54 97.2402 56.1082 97.7736 60.6324 97.5226L60.6261 92.8478C60.5508 92.854 60.4724 92.8572 60.3971 92.8634C56.3404 93.0862 52.3495 92.6093 48.5093 91.4484Z" fill="#1A8B4E"/>
<path d="M63.8046 97.2235L63.7951 92.5016C65.6619 92.2098 67.4973 91.7863 69.2512 91.2121C69.3892 91.1619 69.7469 91.0427 69.7469 91.0427C70.001 90.958 70.2552 90.867 70.503 90.7697L70.5626 90.7478C70.7478 90.6819 70.9297 90.6129 71.1117 90.5438L71.165 90.5219C71.165 90.5219 71.2058 90.5062 71.2215 90.4968L71.2278 95.4665C71.0458 95.5293 70.8701 95.5857 70.6913 95.6453C68.4386 96.3795 66.1263 96.9035 63.7983 97.2235H63.8046Z" fill="#1A8B4E"/>
<path d="M78.5212 86.5207C77.7494 87.0729 76.9556 87.5968 76.1399 88.08C75.7571 88.3059 75.3743 88.5255 74.9884 88.7357C74.8159 88.833 74.659 88.9145 74.499 88.993L74.3766 89.0526C74.2982 89.0934 74.2166 89.131 74.1382 89.1718L74.1413 94.3329C74.9508 93.9815 75.7477 93.5988 76.5352 93.1878C76.7705 93.0717 77.0058 92.9493 77.2349 92.8207C77.6647 92.5854 78.0914 92.3406 78.5181 92.0896L78.5149 86.5207L78.5212 86.5207Z" fill="#1A8B4E"/>
<path d="M89.6623 57.6289C89.9604 68.3622 84.7679 77.9973 76.6419 83.833C75.3555 84.7617 73.9907 85.5868 72.5726 86.3085C71.8541 86.6755 71.1231 87.0112 70.3732 87.3218C68.1457 88.2443 65.7831 88.9125 63.3202 89.2984C62.4794 89.4302 61.6229 89.5275 60.7632 89.5902C60.302 89.6248 59.8377 89.6498 59.367 89.6624C52.5839 89.8506 46.2399 87.849 41.0192 84.2911C33.003 78.8539 27.6254 69.7678 27.3367 59.364C27.0481 48.9601 31.9174 39.5917 39.6136 33.7152C44.6335 29.875 50.852 27.5219 57.6352 27.3336C58.1058 27.3211 58.5733 27.318 59.0345 27.3274C59.9004 27.3399 60.7601 27.3901 61.6041 27.4748C64.0826 27.7195 66.4797 28.2592 68.7543 29.053C69.5167 29.3197 70.2666 29.6177 71.0039 29.9409C72.4659 30.5809 73.8684 31.3308 75.2049 32.1842C83.6416 37.5586 89.3611 46.8926 89.6592 57.6258L89.6623 57.6289Z" fill="#036319"/>
<path d="M40.119 35.6727L40.7151 81.7871C40.8876 81.922 41.0571 82.0538 41.2359 82.1824C43.087 83.5378 45.1044 84.6704 47.2316 85.5552C47.9344 85.8438 48.6529 86.1105 49.3682 86.3427C50.7989 86.8133 52.2609 87.1647 53.7167 87.4031C55.9474 87.7702 58.1845 87.8738 60.387 87.7294L59.634 29.2284C52.559 28.9617 45.6127 31.2646 40.1221 35.6696L40.119 35.6727Z" fill="#1A8B4E"/>
<path d="M63.1916 29.5848L63.9351 87.2858C66.3855 86.8246 68.7606 86.0559 71.0101 84.9986L70.323 31.6775C68.064 30.6861 65.6702 29.9801 63.1916 29.5848Z" fill="#1A8B4E"/>
<path d="M78.2247 80.1772L77.66 36.3218C76.3485 35.186 74.9492 34.182 73.484 33.3067L74.1272 83.2958C75.5704 82.386 76.9446 81.3443 78.2247 80.1772Z" fill="#1A8B4E"/>
<path d="M70.2827 30.3065C85.2484 36.5626 92.6183 53.4202 87.3474 68.5365L89.5059 69.4401C95.2726 53.1316 87.3348 34.9092 71.1863 28.1542C55.0315 21.3993 36.486 28.5496 28.9279 44.1082L31.0864 45.0118C38.1457 30.6423 55.3202 24.0473 70.289 30.3065L70.2827 30.3065Z" fill="#036319"/>
<path d="M45.8055 88.8357C62.5344 95.8322 81.8392 87.9101 88.8357 71.1812C89.0773 70.6008 89.2969 70.0235 89.504 69.4399L87.3454 68.5363C87.1415 69.123 86.925 69.7034 86.6834 70.2839C80.1826 85.8268 62.2489 93.1873 46.7059 86.6865C31.1629 80.1857 23.8025 62.252 30.3033 46.709C30.5449 46.1286 30.8053 45.567 31.0782 45.0116L28.9197 44.1081C28.6498 44.6665 28.3894 45.2281 28.1478 45.8086C21.1513 62.5375 29.0734 81.8423 45.8023 88.8388L45.8055 88.8357Z" fill="#036319"/>
<path d="M68.0967 78.0875C66.0417 78.1471 63.9835 78.2035 61.9253 78.2663C61.894 78.2224 61.8688 78.1722 61.8312 78.1283C60.6295 76.707 59.4216 75.2857 58.2168 73.8676C54.7123 69.7356 51.2078 65.6035 47.7001 61.4746C47.606 61.3617 47.5589 61.2519 47.5558 61.1044C47.5307 60.1192 47.4993 59.1341 47.471 58.1521C47.4679 58.0799 47.4648 58.0077 47.4648 57.9262C47.5526 57.9199 47.6028 57.9136 47.6593 57.9136C48.4939 57.8885 49.3284 57.8885 50.1599 57.8414C51.1482 57.7881 52.1396 57.7379 53.1216 57.6093C54.4801 57.4304 55.7696 57.0006 56.943 56.2727C58.4804 55.3127 59.5503 53.9981 59.9487 52.2003C60.0397 51.7893 60.0585 51.3626 60.115 50.9171C55.368 51.052 50.6838 51.1869 45.9682 51.3218C46.0215 51.2308 46.0561 51.1649 46.0968 51.1053C46.7808 50.0072 47.4679 48.9185 48.1487 47.8173C48.2334 47.6824 48.3213 47.6259 48.4907 47.6196C52.0831 47.5223 55.6755 47.4188 59.2679 47.3153C59.3401 47.3121 59.4122 47.309 59.5063 47.309C59.4781 47.2368 59.4656 47.1929 59.4405 47.149C59.2051 46.7882 58.9949 46.4023 58.722 46.0728C57.9062 45.0751 56.8081 44.5167 55.5814 44.1872C54.1632 43.8045 52.7106 43.7323 51.2548 43.7511C49.4979 43.7762 47.744 43.8358 45.987 43.8798C45.918 43.8798 45.849 43.886 45.7486 43.886C45.8113 43.7794 45.8521 43.7135 45.8898 43.6507C46.5769 42.5557 47.2577 41.4608 47.9417 40.3627C47.9793 40.3062 48.0013 40.2403 48.0295 40.1807L71.7362 39.503C71.7079 39.5563 71.686 39.6159 71.6514 39.6693C70.9518 40.7894 70.249 41.9126 69.5525 43.0358C69.474 43.1644 69.3893 43.2115 69.2419 43.2146C67.2904 43.2648 65.342 43.3244 63.3937 43.3778C63.3215 43.3809 63.2525 43.3809 63.1364 43.384C64.1529 44.4821 64.7459 45.7465 65.0816 47.149C67.3751 47.0831 69.656 47.0172 71.9558 46.9513C71.9307 47.0015 71.915 47.0298 71.8993 47.0517C71.1745 48.2095 70.4529 49.3703 69.725 50.5249C69.6874 50.5876 69.5776 50.6347 69.4991 50.6378C68.1438 50.6818 66.7915 50.7225 65.4361 50.7539C65.2918 50.7602 65.2291 50.7916 65.2102 50.9485C65.1757 51.2402 65.1287 51.532 65.0628 51.8175C64.4698 54.4687 62.9481 56.4798 60.7425 57.9952C58.722 59.3819 56.4661 60.1381 54.0534 60.4549C53.7962 60.4863 53.5389 60.5177 53.2565 60.5553C53.3318 60.6495 53.3852 60.7154 53.4448 60.7812C58.2984 66.5008 63.1489 72.2173 68.0026 77.9369C68.0402 77.9808 68.0685 78.0404 68.0998 78.0906L68.0967 78.0875Z" fill="#025714"/>
<path d="M67.1506 77.5849C65.0956 77.6445 63.0374 77.701 60.9792 77.7638C60.9479 77.7198 60.9228 77.6696 60.8851 77.6257C59.6835 76.2044 58.4755 74.7832 57.2708 73.365C53.7662 69.233 50.2617 65.101 46.754 60.9721C46.6599 60.8591 46.6128 60.7493 46.6097 60.6019C46.5846 59.6167 46.5532 58.6315 46.525 57.6495C46.5218 57.5773 46.5187 57.5052 46.5187 57.4236C46.6065 57.4173 46.6567 57.4111 46.7132 57.4111C47.5478 57.386 48.3823 57.386 49.2138 57.3389C50.2021 57.2856 51.1935 57.2354 52.1755 57.1067C53.534 56.9279 54.8235 56.4981 55.997 55.7702C57.5343 54.8101 58.6042 53.4955 59.0026 51.6978C59.0936 51.2867 59.1124 50.86 59.1689 50.4145C54.4219 50.5494 49.7377 50.6844 45.0221 50.8193C45.0755 50.7283 45.11 50.6624 45.1508 50.6028C45.8347 49.5047 46.5218 48.416 47.2027 47.3147C47.2874 47.1798 47.3752 47.1233 47.5415 47.1139C51.1339 47.0167 54.7263 46.9131 58.3187 46.8096C58.3908 46.8065 58.463 46.8033 58.5571 46.8033C58.5289 46.7312 58.5163 46.6872 58.4912 46.6433C58.2559 46.2825 58.0457 45.8966 57.7728 45.5672C56.957 44.5694 55.8589 44.011 54.6322 43.6815C53.214 43.2988 51.7614 43.2266 50.3056 43.2454C48.5486 43.2705 46.7948 43.3301 45.0378 43.3741C44.9688 43.3741 44.8998 43.3804 44.7994 43.3804C44.8621 43.2737 44.9029 43.2078 44.9406 43.145C45.6277 42.0501 46.3085 40.9551 46.9925 39.857C47.0301 39.8005 47.0521 39.7346 47.0803 39.675C54.9804 39.4491 62.8837 39.2264 70.7869 38.9973C70.7587 39.0507 70.7367 39.1103 70.7022 39.1636C70.0026 40.2837 69.2998 41.4069 68.6033 42.5301C68.5248 42.6587 68.4401 42.7058 68.2927 42.7089C66.3412 42.7591 64.3928 42.8187 62.4444 42.8721C62.3723 42.8752 62.3032 42.8752 62.1872 42.8784C63.2037 43.9765 63.7967 45.2409 64.1324 46.6433C66.4259 46.5774 68.7068 46.5115 71.0066 46.4456C70.9815 46.4958 70.9658 46.5241 70.9501 46.546C70.2253 47.7038 69.5037 48.8646 68.7758 50.0192C68.7382 50.082 68.6284 50.129 68.5499 50.1322C67.1945 50.1761 65.8423 50.2169 64.4869 50.2482C64.3426 50.2545 64.2798 50.2859 64.261 50.4428C64.2265 50.7345 64.1795 51.0263 64.1136 51.3118C63.5206 53.963 61.9989 55.9741 59.7933 57.4895C57.7728 58.8763 55.5169 59.6324 53.1042 59.9493C52.8469 59.9807 52.5897 60.012 52.3073 60.0497C52.3826 60.1438 52.4359 60.2097 52.4955 60.2756C57.3492 65.9952 62.1997 71.7116 67.0534 77.4312C67.091 77.4751 67.1193 77.5347 67.1506 77.5849Z" fill="#69D05A"/>
<path d="M39.1016 72.7254C30.7112 73.4974 30.0855 74.123 29.3135 82.5135C28.5414 74.123 27.9158 73.4974 19.5254 72.7254C27.9158 71.9533 28.5414 71.3277 29.3135 62.9373C30.0855 71.3277 30.7112 71.9533 39.1016 72.7254Z" fill="#FFFCFF"/>
<path d="M96.9595 47.369C91.3466 47.8837 90.9295 48.3052 90.4104 53.9181C89.8957 48.3052 89.4742 47.8881 83.8613 47.369C89.4742 46.8543 89.8913 46.4328 90.4104 40.8199C90.9251 46.4328 91.3466 46.8499 96.9595 47.369Z" fill="#FFFCFF"/>
</svg>
